<?xml version="1.0" encoding="UTF-8" standalone="no"?><!DOCTYPE svg PUBLIC "-//W3C//DTD SVG 1.1//EN" "http://www.w3.org/Graphics/SVG/1.1/DTD/svg11.dtd"><svg width="100%" height="100%" viewBox="0 0 1024 1024" version="1.1" xmlns="http://www.w3.org/2000/svg" xmlns:xlink="http://www.w3.org/1999/xlink" xml:space="preserve" xmlns:serif="http://www.serif.com/" style="fill-rule:evenodd;clip-rule:evenodd;stroke-linejoin:round;stroke-miterlimit:2;"><rect id="Artboard1" x="0" y="0" width="1024" height="1024" style="fill:none;"/><g id="Artboard11" serif:id="Artboard1"><path d="M224.557,84.77l157.58,157.58l-157.58,157.58l-157.58,-157.58l157.58,-157.58Z"/><path d="M690.471,569.026c-10.467,-1.017 -21.009,-1.017 -31.477,-0l-5.184,25.239c-10.033,1.535 -19.867,4.17 -29.323,7.857l-17.109,-19.265c-9.574,4.353 -18.703,9.624 -27.26,15.738l8.129,24.45c-7.921,6.346 -15.12,13.545 -21.466,21.466l-24.449,-8.13c-6.115,8.557 -11.386,17.686 -15.739,27.26l19.266,17.109c-3.687,9.457 -6.322,19.29 -7.858,29.323l-25.238,5.185c-1.017,10.467 -1.017,21.009 0,31.477l25.238,5.184c1.536,10.033 4.171,19.867 7.858,29.323l-19.266,17.109c4.353,9.574 9.624,18.703 15.739,27.26l24.449,-8.129c6.346,7.921 13.545,15.119 21.466,21.466l-8.129,24.449c8.557,6.115 17.686,11.386 27.26,15.739l17.109,-19.266c9.456,3.687 19.29,6.322 29.323,7.857l5.184,25.239c10.468,1.017 21.01,1.017 31.477,0l5.185,-25.239c10.033,-1.535 19.866,-4.17 29.323,-7.857l17.109,19.266c9.574,-4.353 18.703,-9.624 27.26,-15.739l-8.13,-24.449c7.921,-6.347 15.12,-13.545 21.466,-21.466l24.449,8.129c6.115,-8.557 11.386,-17.686 15.739,-27.26l-19.265,-17.109c3.687,-9.456 6.322,-19.29 7.857,-29.323l25.239,-5.184c1.017,-10.468 1.017,-21.01 0,-31.477l-25.239,-5.185c-1.535,-10.033 -4.17,-19.866 -7.857,-29.323l19.265,-17.109c-4.353,-9.574 -9.624,-18.703 -15.739,-27.26l-24.449,8.13c-6.346,-7.921 -13.545,-15.12 -21.466,-21.466l8.13,-24.45c-8.557,-6.114 -17.686,-11.385 -27.26,-15.738l-17.109,19.265c-9.457,-3.687 -19.29,-6.322 -29.323,-7.857l-5.185,-25.239Zm-15.738,129.424c17.963,0 32.546,14.583 32.546,32.546c-0,17.963 -14.583,32.547 -32.546,32.547c-17.963,0 -32.547,-14.584 -32.547,-32.547c-0,-17.963 14.584,-32.546 32.547,-32.546Z"/><path d="M737.287,191.445c31.1,-56.309 93.301,-56.309 124.401,-28.155c31.102,28.155 31.102,84.464 0,140.774c-21.77,42.232 -77.751,84.464 -124.401,112.619c-46.651,-28.155 -102.632,-70.387 -124.402,-112.619c-31.1,-56.31 -31.1,-112.619 0,-140.774c31.101,-28.154 93.301,-28.154 124.402,28.155Z"/><path d="M1024,0l-1024,0l0,1024l1024,0l0,-1024Zm-12,12l0,1000l-1000,0l0,-1000l1000,0Z" style="fill:none;"/></g></svg>