<?xml version="1.0" encoding="UTF-8" standalone="yes"?>
<svg xmlns="http://www.w3.org/2000/svg" xmlns:xlink="http://www.w3.org/1999/xlink" width="277.832px" height="643.493px" version="1.1" viewBox="627.893 92.208 138.916 321.747">
  <!--
	Exported with Concepts: Smarter Sketching
	Version: 916 on iOS 14.6
	https://concepts.app/
	-->
  <title>Untitled 7</title>
  <desc>Drawing exported from Concepts: Smarter Sketching</desc>
  <defs></defs>
  <g id="New_Layer_1" opacity="0.577" display="none">
    <path id="STROKE_6d254223-e571-4a2f-8bb4-adecf4acfe6b" opacity="0.500" display="none" fill="#009ef1" stroke="#009ef1" stroke-width="0.500" stroke-opacity="1.000" stroke-linecap="round" stroke-linejoin="round" d="M 347.952 342.858 Q 347.100 342.858 347.374 342.858 Q 347.026 342.855 347.077 342.873 Q 347.217 342.860 346.618 342.939 Q 346.019 343.018 345.972 343.084 "></path>
    <path id="STROKE_a81fc5cf-ec6a-45ba-9b63-cd94ce36fd9e" opacity="0.500" display="none" fill="#009ef1" stroke="#009ef1" stroke-width="0.500" stroke-opacity="1.000" stroke-linecap="round" stroke-linejoin="round" d="M 346.368 342.061 Q 346.947 341.612 347.723 340.989 Q 348.500 340.366 349.474 339.569 "></path>
    <path id="STROKE_6da10135-7612-489e-a48c-e8b2acd5f831" opacity="0.280" display="none" fill="#009ef1" stroke="#009ef1" stroke-width="0.500" stroke-opacity="1.000" stroke-linecap="round" stroke-linejoin="round" d="M 676.446 150.405 Q 676.446 150.471 676.446 150.834 Q 676.485 150.856 677.221 149.576 Q 677.958 148.296 678.642 147.458 Q 679.326 146.619 679.788 146.002 Q 680.251 145.384 680.551 144.963 Q 680.851 144.542 681.048 144.260 Q 681.245 143.978 681.379 143.806 Q 681.513 143.633 682.214 142.673 Q 682.916 141.713 683.389 141.028 Q 683.863 140.343 684.080 140.020 Q 684.297 139.698 684.307 139.687 Q 684.318 139.676 684.581 139.187 Q 684.844 138.698 686.064 137.600 Q 687.284 136.502 688.037 135.716 Q 688.790 134.931 688.963 134.666 Q 689.135 134.401 689.252 134.132 Q 689.368 133.864 689.448 133.544 Q 689.527 133.224 689.539 133.373 Q 689.552 133.521 689.866 132.145 Q 690.180 130.769 690.212 128.621 Q 690.245 126.474 690.294 125.556 Q 690.344 124.638 689.733 122.292 Q 689.122 119.947 688.771 118.160 Q 688.420 116.373 687.819 114.502 Q 687.218 112.632 686.742 111.278 Q 686.266 109.923 685.418 108.303 Q 684.570 106.683 683.855 105.680 Q 683.139 104.677 682.739 104.365 Q 682.339 104.054 682.054 103.783 Q 681.769 103.511 680.422 102.530 Q 679.074 101.550 678.147 100.820 Q 677.220 100.089 676.226 99.620 Q 675.232 99.151 674.746 98.989 Q 674.260 98.827 673.780 98.701 Q 673.300 98.576 672.987 98.483 Q 672.674 98.390 671.946 98.227 Q 671.217 98.064 670.228 97.971 Q 669.239 97.878 668.452 97.778 Q 667.665 97.678 666.903 97.653 Q 666.140 97.627 665.599 97.645 Q 665.058 97.663 664.793 97.608 Q 664.527 97.554 663.923 97.671 Q 663.319 97.789 662.298 98.217 Q 661.277 98.646 660.062 100.132 Q 658.848 101.618 658.141 102.862 Q 657.434 104.105 656.855 105.393 Q 656.275 106.681 655.755 107.779 Q 655.234 108.876 652.997 112.156 Q 650.760 115.436 649.471 117.414 Q 648.182 119.392 647.707 120.387 Q 647.232 121.381 646.662 122.597 Q 646.091 123.813 646.021 125.881 Q 645.952 127.949 645.854 129.255 Q 645.757 130.561 646.720 133.437 Q 647.683 136.314 648.384 137.719 Q 649.085 139.123 649.513 140.232 Q 649.940 141.341 650.866 143.547 Q 651.791 145.753 653.012 147.765 Q 654.232 149.777 655.259 152.194 Q 654.820 152.226 653.194 149.155 Q 651.568 146.084 650.317 142.541 Q 649.066 138.998 648.354 137.352 Q 647.642 135.705 647.246 133.188 Q 646.849 130.672 646.781 129.069 Q 646.712 127.466 646.626 126.118 Q 646.539 124.770 646.349 122.719 Q 646.158 120.669 646.197 119.178 Q 646.235 117.687 646.316 117.043 Q 646.396 116.399 646.458 116.122 Q 646.520 115.845 646.696 115.707 Q 646.872 115.569 646.895 115.560 Q 646.918 115.550 647.220 115.346 Q 647.522 115.142 648.023 114.826 Q 648.524 114.509 649.515 114.127 Q 650.506 113.745 650.756 113.577 "></path>
    <path id="STROKE_35092af4-cc8d-4f99-b868-0b00572fd315" opacity="0.280" display="none" fill="#009ef1" stroke="#009ef1" stroke-width="0.500" stroke-opacity="1.000" stroke-linecap="round" stroke-linejoin="round" d="M 657.405 109.100 Q 657.323 109.408 659.000 103.112 Q 658.346 103.029 658.385 103.127 Q 657.723 103.267 655.173 106.169 Q 652.623 109.071 651.186 110.693 Q 649.748 112.315 648.756 113.868 Q 647.763 115.422 647.194 117.057 Q 646.624 118.692 646.471 121.327 Q 646.318 123.962 646.181 126.347 Q 646.043 128.732 646.090 130.191 Q 646.138 131.651 646.546 132.704 Q 646.953 133.758 647.971 136.029 Q 648.988 138.301 649.496 139.657 Q 650.004 141.014 650.213 141.741 Q 650.422 142.468 650.599 142.961 Q 650.776 143.453 651.134 144.993 Q 651.491 146.533 651.782 147.940 Q 652.074 149.347 652.282 150.006 Q 652.490 150.665 652.809 151.281 Q 653.128 151.896 653.460 152.365 Q 653.792 152.833 653.911 152.954 Q 654.031 153.074 654.196 153.212 Q 654.360 153.350 654.357 153.334 Q 654.354 153.318 654.508 153.466 Q 654.663 153.614 655.299 153.801 Q 655.936 153.989 656.281 154.007 Q 656.625 154.025 657.351 154.008 Q 658.078 153.992 659.731 154.038 Q 661.383 154.085 662.933 154.219 Q 664.482 154.353 665.870 154.414 Q 667.259 154.474 668.749 154.003 Q 670.239 153.532 670.805 153.282 Q 671.371 153.032 671.679 152.923 Q 671.986 152.814 672.328 152.707 Q 672.669 152.600 672.911 152.532 Q 673.152 152.465 673.273 152.439 Q 673.394 152.413 673.378 152.415 Q 673.362 152.416 673.434 152.388 Q 673.507 152.359 673.443 152.400 Q 673.379 152.441 673.675 152.328 Q 673.971 152.215 674.231 152.040 Q 674.491 151.865 674.469 151.864 Q 674.447 151.864 674.440 151.883 Q 674.432 151.902 674.471 151.860 Q 674.509 151.819 674.474 151.852 Q 674.438 151.885 674.689 151.639 Q 674.941 151.392 674.929 151.403 Q 674.917 151.413 674.934 151.402 Q 674.951 151.391 674.918 151.415 Q 674.885 151.440 675.085 151.257 Q 675.285 151.075 675.369 151.001 Q 675.453 150.928 675.495 150.887 Q 675.538 150.846 675.738 150.649 Q 675.938 150.452 675.928 150.458 Q 675.919 150.464 675.916 150.469 Q 675.913 150.475 676.074 150.302 Q 676.235 150.129 676.372 149.986 Q 676.509 149.842 676.498 149.857 Q 676.487 149.873 676.558 149.790 Q 676.630 149.708 676.802 149.483 Q 676.975 149.257 677.100 149.067 Q 677.225 148.877 677.339 148.714 Q 677.452 148.551 677.448 148.552 Q 677.444 148.554 677.548 148.445 Q 677.652 148.336 678.289 147.304 Q 678.926 146.272 678.989 146.123 "></path>
    <path id="STROKE_41a1d1bd-7f32-4b8c-9294-5b61b70a74bc" opacity="0.280" display="none" fill="#009ef1" stroke="#009ef1" stroke-width="0.500" stroke-opacity="1.000" stroke-linecap="round" stroke-linejoin="round" d="M 651.642 131.991 Q 651.679 131.991 651.809 131.991 Q 651.809 132.006 651.809 132.022 Q 651.429 132.189 650.315 132.226 Q 649.200 132.263 648.131 132.380 Q 647.062 132.497 646.346 132.121 Q 645.629 131.744 645.337 131.395 Q 645.044 131.045 644.768 130.692 Q 644.492 130.339 644.297 130.017 Q 644.101 129.696 643.972 129.424 Q 643.843 129.152 643.702 128.791 Q 643.560 128.429 643.530 128.283 Q 643.499 128.137 643.497 128.118 Q 643.494 128.100 643.474 128.064 Q 643.453 128.029 643.365 127.560 Q 643.277 127.091 643.219 126.687 Q 643.161 126.283 643.150 126.088 Q 643.138 125.893 643.134 126.068 Q 643.130 126.242 643.044 124.150 Q 642.959 122.057 642.919 120.536 Q 642.879 119.014 643.561 117.675 Q 644.243 116.335 644.550 115.874 Q 644.858 115.412 645.896 113.945 Q 646.934 112.478 648.062 111.484 Q 649.191 110.490 650.198 109.776 Q 651.205 109.062 652.512 108.188 Q 653.819 107.313 654.568 106.868 Q 655.317 106.424 655.734 106.220 Q 656.151 106.017 656.582 105.719 Q 657.012 105.421 660.084 103.849 Q 663.157 102.278 668.261 100.461 Q 673.365 98.645 675.827 97.648 Q 678.289 96.651 679.573 96.312 Q 680.857 95.973 681.772 95.897 Q 682.688 95.822 683.408 95.936 Q 684.128 96.050 684.458 96.270 Q 684.789 96.491 684.713 96.501 Q 684.636 96.511 684.920 96.568 Q 685.205 96.625 686.038 98.137 Q 686.872 99.649 687.124 100.839 Q 687.377 102.029 687.411 103.104 Q 687.446 104.178 687.175 105.339 Q 686.905 106.500 686.101 108.154 Q 685.297 109.808 683.647 111.869 Q 681.997 113.931 680.386 115.554 Q 678.774 117.177 677.814 118.289 Q 676.853 119.400 676.353 120.438 Q 675.852 121.475 675.654 121.803 "></path>
    <path id="STROKE_c90c7de6-d80d-4b41-a029-22fb950ec7f5" opacity="0.280" display="none" fill="#009ef1" stroke="#009ef1" stroke-width="0.500" stroke-opacity="1.000" stroke-linecap="round" stroke-linejoin="round" d="M 664.659 151.631 Q 664.397 151.281 664.935 150.176 Q 665.473 149.072 665.682 148.113 Q 665.891 147.155 665.881 146.732 Q 665.871 146.309 665.561 145.842 Q 665.251 145.375 664.206 145.206 Q 663.161 145.037 662.055 144.954 Q 660.950 144.872 659.140 145.251 Q 657.331 145.630 655.769 146.404 Q 654.206 147.179 653.376 147.747 Q 652.546 148.315 651.563 149.685 Q 650.580 151.055 650.017 153.194 Q 649.453 155.332 648.749 157.442 Q 648.045 159.551 647.350 160.831 Q 646.655 162.111 645.597 164.665 Q 644.538 167.219 643.792 170.559 Q 643.046 173.898 642.580 175.563 Q 642.114 177.228 641.506 182.300 Q 640.897 187.372 640.537 190.567 Q 640.177 193.762 640.212 196.109 Q 640.246 198.456 640.755 200.857 Q 641.263 203.258 641.649 205.783 Q 642.036 208.308 642.586 210.819 Q 643.137 213.330 644.678 217.530 Q 646.219 221.730 647.210 223.977 Q 648.200 226.224 649.025 228.978 Q 649.850 231.732 650.353 233.655 Q 650.856 235.578 651.351 236.748 Q 651.846 237.919 652.135 238.229 Q 652.423 238.540 652.669 238.778 Q 652.914 239.016 652.899 239.001 Q 652.884 238.985 652.866 238.976 Q 652.847 238.967 653.115 239.168 Q 653.384 239.370 653.547 239.470 Q 653.710 239.569 653.940 239.695 Q 654.169 239.821 654.116 239.793 Q 654.063 239.765 654.141 239.789 Q 654.218 239.813 654.350 239.881 Q 654.483 239.949 654.588 239.914 Q 654.693 239.879 654.901 239.768 Q 655.109 239.656 655.353 239.462 Q 655.596 239.267 655.938 238.934 Q 656.280 238.600 656.509 238.319 "></path>
    <path id="STROKE_e3f90f48-4e94-4524-96f5-fd370a4c3db5" opacity="0.280" display="none" fill="#009ef1" stroke="#009ef1" stroke-width="0.500" stroke-opacity="1.000" stroke-linecap="round" stroke-linejoin="round" d="M 661.376 234.733 Q 661.428 234.834 661.324 235.337 Q 661.220 235.841 660.958 236.250 Q 660.697 236.659 660.360 236.913 Q 660.023 237.167 659.717 237.091 Q 659.411 237.014 659.250 236.795 Q 659.091 236.576 658.166 235.219 Q 657.241 233.863 656.612 232.794 Q 655.982 231.725 655.915 230.475 Q 655.644 230.427 657.246 230.274 Q 658.849 230.121 661.960 232.093 Q 665.072 234.065 666.777 235.299 Q 668.483 236.533 670.769 237.706 Q 673.054 238.878 674.737 239.556 Q 676.420 240.235 679.129 240.727 Q 681.838 241.220 684.770 241.298 Q 687.703 241.375 689.312 241.438 Q 690.921 241.501 692.918 241.615 Q 694.915 241.729 698.242 241.695 Q 701.569 241.660 703.572 241.785 Q 705.575 241.910 707.445 241.952 Q 707.647 241.922 707.311 241.764 Q 706.974 241.605 706.364 241.572 Q 705.753 241.538 705.704 240.790 Q 705.655 240.042 705.643 239.734 Q 705.631 239.427 706.020 238.112 Q 706.408 236.796 706.920 233.699 Q 707.432 230.601 707.685 228.788 Q 707.938 226.975 708.220 225.967 Q 708.502 224.959 708.785 222.972 Q 709.068 220.984 709.113 219.615 Q 709.158 218.246 709.039 217.127 Q 708.920 216.008 708.071 213.573 Q 707.223 211.138 706.941 209.755 Q 706.660 208.372 705.588 206.479 Q 704.516 204.586 703.725 203.366 Q 702.933 202.146 702.316 201.069 Q 701.699 199.991 701.296 199.335 Q 700.893 198.678 700.521 197.317 Q 700.149 195.955 700.043 195.459 Q 699.938 194.963 699.462 193.354 Q 698.985 191.744 698.909 190.265 Q 698.832 188.787 698.863 186.942 Q 698.895 185.097 698.857 184.028 Q 698.818 182.959 699.053 180.996 Q 699.287 179.033 699.489 178.146 Q 699.691 177.259 699.839 176.005 Q 699.987 174.752 700.058 174.202 Q 700.128 173.652 700.477 172.887 Q 700.826 172.122 701.143 171.434 Q 701.460 170.747 701.526 170.639 Q 701.592 170.532 701.706 169.972 Q 701.820 169.412 701.810 168.926 Q 701.800 168.440 701.801 168.230 Q 701.802 168.020 701.802 167.941 Q 701.802 167.863 701.802 167.718 Q 701.802 167.573 701.785 167.563 Q 701.768 167.552 701.787 167.451 Q 701.806 167.349 701.817 166.629 Q 701.828 165.910 701.697 165.397 Q 701.565 164.884 701.445 164.630 Q 701.326 164.377 701.343 164.407 Q 701.361 164.438 701.343 164.402 Q 701.324 164.367 701.349 164.438 Q 701.375 164.510 701.104 163.741 Q 701.088 163.741 701.073 163.741 Q 701.119 163.751 701.263 163.705 Q 701.406 163.659 701.542 163.577 "></path>
    <path id="STROKE_b8efed04-9618-403b-b805-36ed007e4058" opacity="0.280" display="none" fill="#009ef1" stroke="#009ef1" stroke-width="0.500" stroke-opacity="1.000" stroke-linecap="round" stroke-linejoin="round" d="M 667.931 151.069 Q 667.836 151.248 666.043 150.610 Q 664.250 149.972 663.308 149.608 Q 662.366 149.245 661.913 148.946 Q 661.460 148.648 661.410 148.574 Q 661.359 148.500 661.378 148.567 Q 661.397 148.635 661.209 148.178 Q 661.392 148.119 664.980 147.861 Q 668.568 147.604 671.141 147.565 Q 673.714 147.526 675.865 148.097 Q 678.015 148.668 680.534 149.631 Q 683.053 150.594 685.261 151.038 Q 687.469 151.483 688.847 151.863 Q 690.224 152.244 691.084 152.677 Q 691.945 153.110 693.431 154.292 Q 694.917 155.474 695.703 156.179 Q 696.488 156.885 697.096 157.628 Q 697.704 158.371 698.228 158.956 Q 698.752 159.541 699.198 160.900 Q 699.644 162.260 699.779 163.104 Q 699.915 163.948 699.953 165.653 Q 699.992 167.358 699.320 169.923 Q 698.649 172.489 698.278 173.746 Q 697.907 175.002 697.021 177.554 Q 696.135 180.106 694.853 182.955 Q 693.572 185.804 692.842 187.605 Q 692.113 189.406 691.290 192.430 Q 690.467 195.454 689.779 197.299 Q 689.090 199.145 687.940 201.300 Q 686.791 203.455 685.272 205.889 Q 683.754 208.322 682.951 209.292 Q 682.148 210.262 681.521 210.965 Q 680.893 211.669 680.319 212.202 Q 679.745 212.736 677.099 215.743 Q 674.453 218.751 672.287 221.521 Q 670.121 224.292 668.556 226.264 Q 666.991 228.236 666.088 229.180 Q 665.185 230.124 664.591 230.795 Q 663.998 231.466 663.524 231.893 Q 663.050 232.321 662.734 232.535 Q 662.419 232.749 662.177 232.910 Q 661.936 233.071 660.642 234.015 Q 659.347 234.958 658.125 235.566 Q 656.903 236.173 655.106 236.299 Q 653.309 236.425 652.045 236.401 Q 650.780 236.376 649.256 235.664 Q 647.731 234.952 646.254 233.428 Q 646.301 233.346 646.392 233.196 Q 646.483 233.045 646.619 232.811 "></path>
    <path id="STROKE_a143cf8d-c052-4eb9-a013-f0bbf716946a" opacity="0.280" display="none" fill="#009ef1" stroke="#009ef1" stroke-width="0.500" stroke-opacity="1.000" stroke-linecap="round" stroke-linejoin="round" d="M 659.000 156.475 Q 659.132 156.332 659.026 155.140 Q 658.920 153.948 658.896 153.320 Q 658.871 152.692 658.622 152.436 Q 658.373 152.179 657.609 151.906 Q 656.844 151.632 656.400 151.629 Q 655.955 151.625 655.264 151.560 Q 654.573 151.494 653.022 151.610 Q 651.470 151.725 649.798 152.365 Q 648.125 153.004 646.998 153.351 Q 645.870 153.699 644.388 154.244 Q 642.906 154.789 641.743 155.784 Q 640.580 156.778 639.873 157.899 Q 639.166 159.019 638.670 160.355 Q 638.173 161.690 637.682 164.470 Q 637.191 167.251 637.170 171.202 Q 637.148 175.153 637.158 179.257 Q 637.168 183.360 637.431 185.908 Q 637.693 188.456 637.956 189.636 Q 638.218 190.817 638.530 191.524 Q 638.842 192.231 640.331 197.598 Q 641.820 202.964 642.405 205.837 Q 642.990 208.711 643.801 210.714 Q 644.613 212.717 645.110 213.664 Q 645.607 214.611 646.201 215.727 Q 646.795 216.844 649.140 219.367 Q 651.485 221.891 653.669 224.216 Q 655.853 226.541 656.280 227.006 "></path>
    <path id="STROKE_d7be8839-12e0-40fb-8821-8422c3a6cbf1" opacity="0.280" display="none" fill="#009ef1" stroke="#009ef1" stroke-width="0.500" stroke-opacity="1.000" stroke-linecap="round" stroke-linejoin="round" d="M 650.913 230.991 Q 651.089 231.284 650.559 230.561 Q 650.030 229.838 649.704 228.967 Q 649.378 228.096 648.901 227.405 Q 648.892 228.392 648.886 228.217 Q 649.031 228.568 648.651 232.539 Q 648.271 236.510 647.347 239.781 Q 646.423 243.051 645.100 248.674 Q 643.776 254.296 642.952 259.575 Q 642.129 264.854 641.568 267.645 Q 641.007 270.436 640.983 275.372 Q 640.959 280.309 640.992 282.829 Q 641.024 285.348 641.066 286.505 Q 641.107 287.661 641.097 288.652 Q 641.087 289.643 641.230 292.213 Q 641.373 294.784 641.947 297.823 Q 642.522 300.861 642.896 303.010 Q 643.270 305.159 645.650 314.022 Q 645.995 313.953 646.150 313.366 Q 645.997 313.362 646.008 313.357 Q 646.019 313.352 646.019 313.362 Q 646.020 313.371 646.057 313.417 Q 646.094 313.463 646.077 313.454 Q 646.061 313.446 646.035 313.421 Q 646.009 313.397 645.777 313.175 Q 645.546 312.954 645.503 312.902 Q 645.460 312.851 645.525 312.850 L 645.525 312.834 Q 646.095 312.880 645.988 312.897 Q 646.803 313.241 646.582 313.147 Q 646.265 312.988 650.424 314.795 Q 654.583 316.602 657.128 317.815 Q 659.672 319.028 661.273 319.536 Q 662.874 320.044 664.841 320.850 Q 666.808 321.656 667.843 322.252 Q 668.878 322.847 670.338 323.292 Q 671.799 323.737 672.606 323.793 Q 673.413 323.849 674.257 323.676 Q 675.101 323.503 676.488 322.302 Q 677.874 321.102 678.730 320.336 Q 679.586 319.569 680.309 319.385 Q 681.032 319.202 681.115 319.100 "></path>
    <path id="STROKE_94d6e0a2-30f6-4fec-8d2b-85d873cea49b" opacity="0.280" display="none" fill="#009ef1" stroke="#009ef1" stroke-width="0.500" stroke-opacity="1.000" stroke-linecap="round" stroke-linejoin="round" d="M 667.973 251.623 Q 667.975 251.293 667.711 249.258 Q 667.446 247.224 667.472 245.855 Q 667.499 244.487 667.585 243.969 Q 667.672 243.451 668.071 242.789 Q 668.470 242.128 668.938 241.758 Q 669.406 241.389 669.557 241.241 "></path>
    <path id="STROKE_2a107540-218b-4870-b70f-59d0cadfa112" opacity="0.280" display="none" fill="#009ef1" stroke="#009ef1" stroke-width="0.500" stroke-opacity="1.000" stroke-linecap="round" stroke-linejoin="round" d="M 671.610 239.280 Q 671.581 238.561 671.611 238.703 Q 671.641 238.844 671.552 238.518 Q 671.464 238.191 671.239 237.926 Q 671.014 237.661 670.754 237.403 Q 670.494 237.144 670.219 237.040 Q 669.944 236.937 669.727 236.934 Q 669.510 236.932 669.207 236.905 Q 668.904 236.877 668.661 236.914 Q 668.419 236.950 668.165 237.136 Q 667.912 237.322 667.904 237.338 Q 667.897 237.354 667.929 237.333 Q 667.961 237.311 667.720 237.559 Q 667.480 237.806 667.477 238.113 Q 667.474 238.420 667.648 238.622 Q 667.822 238.824 667.987 238.869 Q 668.152 238.914 668.333 238.989 Q 668.515 239.065 668.630 239.147 "></path>
    <path id="STROKE_22008d29-c464-4607-a5fa-4761c208beba" opacity="0.280" display="none" fill="#009ef1" stroke="#009ef1" stroke-width="0.500" stroke-opacity="1.000" stroke-linecap="round" stroke-linejoin="round" d="M 652.935 236.530 Q 652.369 236.370 650.886 235.609 Q 649.402 234.847 648.834 232.963 Q 648.472 232.919 650.625 232.292 Q 652.778 231.665 654.799 231.268 Q 656.819 230.871 658.540 230.412 Q 660.260 229.952 663.179 229.612 Q 666.098 229.271 668.116 229.084 Q 670.134 228.898 674.362 228.676 Q 678.590 228.455 681.831 228.550 Q 685.073 228.645 686.735 228.512 Q 688.396 228.379 691.233 229.370 Q 694.069 230.360 696.250 231.063 Q 698.431 231.765 699.609 232.045 Q 700.786 232.325 701.805 232.512 Q 702.823 232.699 703.339 232.720 Q 703.855 232.740 704.198 232.741 Q 704.542 232.742 704.793 232.579 Q 705.045 232.415 705.008 232.411 Q 704.972 232.406 705.176 232.328 Q 705.380 232.250 705.784 231.712 Q 706.188 231.174 706.190 230.553 Q 706.153 230.553 706.044 230.553 Q 705.916 231.167 705.941 230.988 Q 705.965 230.810 705.821 231.946 Q 705.677 233.082 706.158 234.994 Q 706.640 236.906 707.139 237.972 Q 707.638 239.038 707.964 239.596 Q 708.290 240.155 708.996 241.700 Q 709.702 243.245 711.747 247.178 Q 713.791 251.110 714.943 253.224 Q 716.094 255.338 716.494 256.483 Q 716.894 257.628 717.323 258.605 Q 717.753 259.581 719.107 266.784 Q 720.462 273.986 721.342 280.297 Q 722.222 286.609 722.701 289.628 Q 723.180 292.647 723.182 294.474 Q 723.184 296.302 723.676 300.673 Q 724.167 305.044 724.498 307.382 Q 724.828 309.720 724.880 310.894 Q 724.933 312.068 724.962 313.278 Q 724.991 314.489 724.896 315.307 Q 724.802 316.126 722.448 319.663 Q 722.362 319.794 721.837 318.923 Q 721.311 318.052 720.882 317.608 Q 720.453 317.164 719.898 316.957 Q 719.342 316.750 719.379 316.791 Q 719.416 316.833 719.415 316.843 Q 719.413 316.853 719.280 316.783 Q 719.146 316.713 718.312 316.975 Q 717.477 317.236 716.900 318.139 Q 716.323 319.042 715.987 319.878 Q 715.651 320.713 715.356 321.713 Q 715.061 322.712 714.487 324.383 Q 713.913 326.054 713.109 327.366 Q 712.306 328.677 711.289 329.800 Q 710.271 330.922 708.780 332.445 Q 707.289 333.969 706.416 334.620 Q 705.542 335.272 704.775 335.485 Q 704.007 335.699 703.471 335.691 Q 702.936 335.682 702.732 335.557 Q 702.528 335.432 702.519 335.401 Q 702.510 335.369 702.539 335.410 Q 702.568 335.451 702.332 335.184 Q 702.095 334.918 702.074 334.907 Q 702.052 334.897 702.067 334.896 Q 702.082 334.896 701.891 334.768 Q 701.701 334.639 701.543 334.542 Q 701.385 334.446 701.339 334.422 Q 701.293 334.399 701.379 334.495 Q 701.464 334.590 699.985 333.874 Q 698.507 333.158 697.823 332.844 Q 697.140 332.529 696.499 332.139 Q 695.859 331.748 695.549 331.435 Q 695.239 331.123 695.089 330.957 Q 694.940 330.792 694.959 330.850 Q 694.978 330.909 694.788 330.506 Q 694.599 330.103 692.932 330.015 Q 691.266 329.927 690.256 329.868 Q 689.247 329.808 688.945 329.656 Q 688.644 329.505 687.863 329.236 Q 687.081 328.966 685.139 328.581 Q 683.197 328.197 681.621 327.648 Q 680.045 327.099 678.578 326.453 Q 677.111 325.807 676.244 325.472 Q 675.376 325.138 675.049 324.929 Q 674.723 324.720 674.094 324.279 Q 673.465 323.837 673.160 323.573 Q 672.856 323.309 672.722 323.189 Q 672.589 323.069 672.542 323.034 Q 672.495 322.998 672.160 322.663 Q 671.825 322.328 671.444 321.936 Q 671.064 321.543 670.998 321.466 Q 670.932 321.388 670.792 321.220 Q 670.653 321.052 670.560 320.949 Q 670.467 320.846 670.453 320.832 Q 670.438 320.818 670.295 320.668 Q 670.152 320.518 670.001 320.356 Q 669.849 320.193 669.644 319.963 Q 669.439 319.734 669.479 319.777 Q 669.519 319.821 669.517 319.812 Q 669.516 319.804 669.440 319.715 Q 669.364 319.626 669.168 319.413 Q 668.973 319.199 669.029 319.251 Q 669.085 319.303 669.035 319.288 Q 668.985 319.274 668.616 318.804 Q 668.247 318.333 667.526 317.403 Q 666.805 316.472 666.557 316.204 Q 666.308 315.936 665.612 315.401 Q 664.915 314.866 663.731 313.863 Q 662.547 312.860 661.694 312.242 Q 660.841 311.623 660.370 311.374 Q 659.898 311.124 658.609 310.462 Q 657.319 309.800 656.630 309.346 Q 655.941 308.893 654.275 308.114 Q 652.609 307.334 651.486 306.954 Q 650.364 306.574 649.763 306.187 Q 649.162 305.800 648.546 305.376 Q 647.929 304.951 647.454 304.508 Q 646.980 304.065 646.755 303.810 Q 646.531 303.555 646.451 303.460 Q 646.371 303.365 646.178 303.097 Q 645.984 302.828 645.960 302.775 Q 645.936 302.722 645.881 302.684 Q 645.825 302.647 645.264 301.744 Q 644.702 300.841 644.650 299.795 Q 644.597 298.748 644.628 298.498 "></path>
    <path id="STROKE_dfc376d7-ae53-41aa-961c-968de3a8d244" opacity="0.280" display="none" fill="#009ef1" stroke="#009ef1" stroke-width="0.500" stroke-opacity="1.000" stroke-linecap="round" stroke-linejoin="round" d="M 678.228 187.694 Q 677.777 187.452 676.738 186.436 Q 677.325 186.196 679.326 186.845 Q 681.328 187.495 683.150 188.830 Q 684.972 190.165 685.942 191.050 Q 686.911 191.935 688.147 193.289 Q 689.383 194.642 690.010 195.523 Q 690.638 196.404 692.147 197.671 Q 693.656 198.938 694.827 199.693 Q 695.997 200.447 696.863 200.943 Q 697.728 201.439 698.790 202.021 Q 699.852 202.603 700.610 203.368 Q 701.367 204.134 701.819 204.684 Q 702.271 205.235 702.477 205.457 Q 702.684 205.679 702.703 205.693 Q 702.723 205.707 703.227 206.124 Q 703.732 206.542 703.990 206.679 Q 704.248 206.816 704.769 207.131 Q 705.290 207.446 706.113 208.046 Q 706.937 208.646 708.317 209.928 Q 709.698 211.210 710.760 212.373 Q 711.821 213.536 712.429 214.160 Q 713.037 214.783 714.742 214.948 Q 716.447 215.112 717.480 215.108 Q 718.512 215.105 719.146 215.002 Q 719.779 214.899 719.920 214.884 Q 720.061 214.869 721.374 214.630 Q 722.687 214.391 723.452 214.264 Q 724.217 214.136 724.359 214.065 Q 724.502 213.994 724.409 214.017 Q 724.317 214.039 724.778 213.872 Q 725.240 213.704 727.113 212.347 Q 728.986 210.990 729.989 210.031 Q 730.992 209.072 731.849 208.092 Q 732.707 207.111 733.834 206.015 Q 734.961 204.920 735.871 204.041 Q 736.782 203.163 737.266 202.645 Q 737.751 202.128 737.952 201.924 Q 738.153 201.721 738.249 201.574 Q 738.345 201.428 738.348 201.518 Q 738.350 201.608 739.336 200.207 Q 740.322 198.805 740.944 197.673 Q 741.566 196.542 741.953 195.946 Q 742.340 195.350 742.536 195.072 Q 742.732 194.795 742.855 194.605 Q 742.979 194.415 743.230 194.058 Q 743.480 193.700 744.884 191.905 Q 746.287 190.109 747.239 188.923 Q 748.191 187.737 748.672 186.506 Q 749.153 185.275 749.713 183.844 Q 750.272 182.413 750.627 181.821 Q 750.982 181.229 751.546 180.050 Q 752.110 178.871 752.380 178.223 Q 752.650 177.575 752.740 177.327 Q 752.830 177.079 752.953 176.282 Q 753.075 175.485 752.823 174.762 Q 752.570 174.040 752.366 173.772 Q 752.163 173.504 752.037 173.289 Q 751.912 173.073 751.852 172.998 Q 751.792 172.923 751.791 172.917 Q 751.790 172.911 751.739 172.838 Q 751.689 172.765 751.174 172.246 Q 750.659 171.727 750.337 171.422 Q 750.014 171.118 749.806 170.896 Q 749.597 170.673 749.455 170.505 Q 749.313 170.337 749.369 170.418 Q 749.424 170.499 749.259 170.214 Q 749.093 169.929 748.597 169.570 Q 748.101 169.210 747.786 169.059 Q 747.471 168.908 747.227 168.851 Q 746.983 168.794 746.993 168.805 Q 747.002 168.816 747.049 168.765 Q 747.095 168.713 745.656 168.687 Q 744.216 168.661 742.872 168.493 Q 741.527 168.324 740.862 167.951 Q 740.197 167.578 739.295 168.239 Q 738.392 168.901 737.915 169.494 Q 737.437 170.086 737.008 170.662 Q 736.579 171.238 735.105 173.058 Q 733.631 174.879 731.831 176.388 Q 730.031 177.896 729.084 178.534 Q 728.138 179.173 727.588 179.530 Q 727.038 179.887 726.439 180.263 Q 725.840 180.639 725.046 181.112 Q 724.252 181.584 723.868 181.920 Q 723.484 182.255 722.417 182.876 Q 721.350 183.498 720.738 183.755 Q 720.126 184.012 719.692 184.035 Q 719.258 184.058 719.314 184.033 Q 719.370 184.007 719.311 184.004 Q 719.252 184.002 719.211 183.804 Q 719.169 183.605 718.576 182.818 Q 717.983 182.031 717.438 181.470 Q 716.893 180.909 715.454 180.187 Q 714.015 179.466 713.143 179.150 Q 712.271 178.835 711.728 178.613 Q 711.184 178.392 710.689 178.161 Q 710.194 177.931 709.359 177.403 Q 708.524 176.875 707.537 175.191 Q 706.551 173.508 706.070 172.532 Q 705.590 171.557 704.891 170.554 Q 704.192 169.550 703.535 168.853 Q 702.877 168.157 702.101 167.359 Q 701.325 166.561 700.080 165.636 Q 698.835 164.712 698.114 164.305 Q 697.392 163.897 697.004 163.672 Q 696.615 163.446 696.295 163.290 Q 695.975 163.133 695.339 162.709 Q 694.704 162.284 692.818 161.222 Q 690.933 160.161 689.312 159.302 Q 687.692 158.444 685.462 157.146 Q 683.233 155.848 682.003 155.299 Q 680.774 154.750 680.225 154.521 Q 679.676 154.291 679.198 153.948 Q 678.721 153.605 676.487 153.371 Q 674.254 153.137 671.997 153.060 Q 669.740 152.983 668.543 152.904 Q 667.346 152.825 666.779 152.775 Q 666.212 152.726 664.297 152.624 Q 662.383 152.521 660.856 152.556 Q 659.328 152.591 657.737 153.027 Q 656.146 153.464 653.420 153.721 Q 650.695 153.979 649.045 153.910 Q 647.394 153.842 645.826 154.434 Q 644.258 155.026 643.151 155.808 Q 642.045 156.591 641.443 157.272 Q 640.840 157.954 640.830 158.443 Q 640.819 158.932 640.918 159.131 "></path>
    <path id="STROKE_00cd958d-9ee5-4a47-9a8d-31410409c31c" opacity="0.280" display="none" fill="#009ef1" stroke="#009ef1" stroke-width="0.500" stroke-opacity="1.000" stroke-linecap="round" stroke-linejoin="round" d="M 700.114 165.998 Q 699.481 166.116 698.289 165.789 Q 697.096 165.463 696.370 165.025 Q 695.644 164.587 695.208 163.893 Q 694.771 163.199 694.388 162.862 Q 694.004 162.526 693.681 162.390 Q 693.359 162.254 693.295 162.238 Q 693.231 162.223 693.144 162.165 Q 693.057 162.107 691.339 161.717 Q 691.252 161.745 692.207 161.779 Q 693.163 161.812 695.018 160.940 Q 696.874 160.068 698.063 159.671 Q 699.253 159.274 700.177 159.026 Q 701.102 158.778 701.779 158.673 Q 702.455 158.569 702.721 158.572 Q 702.988 158.575 703.260 158.761 Q 703.532 158.946 703.504 158.933 Q 703.475 158.920 703.481 158.920 Q 703.488 158.920 703.570 159.014 Q 703.652 159.109 703.848 159.306 Q 704.044 159.503 703.991 159.459 Q 703.937 159.414 703.952 159.427 Q 703.968 159.439 703.965 159.435 Q 703.962 159.430 704.087 159.552 Q 704.213 159.673 704.488 159.920 Q 704.763 160.168 704.968 160.332 Q 705.172 160.495 705.365 160.632 Q 705.557 160.769 705.545 160.772 Q 705.533 160.775 705.802 161.022 Q 706.072 161.269 707.161 162.054 Q 708.249 162.839 708.889 163.392 Q 709.528 163.945 709.698 164.366 Q 709.868 164.786 709.923 164.779 Q 709.978 164.772 710.237 165.938 Q 710.496 167.105 710.610 168.070 Q 710.724 169.035 710.969 169.613 Q 711.214 170.190 711.614 171.635 Q 712.015 173.079 712.110 174.698 Q 712.205 176.318 712.241 177.025 Q 712.277 177.733 712.179 178.098 Q 712.081 178.464 712.104 178.378 Q 712.127 178.292 712.099 178.344 Q 712.072 178.396 712.083 178.374 Q 712.094 178.352 711.882 178.903 Q 711.670 179.454 711.713 179.441 Q 711.756 179.428 711.740 179.422 Q 711.723 179.416 711.781 179.729 Q 711.838 180.042 711.844 180.043 Q 711.850 180.044 711.993 180.334 Q 712.135 180.623 712.266 180.889 "></path>
    <path id="STROKE_b3d193c7-8e11-4e89-bd9f-4b214b90fd86" opacity="0.280" display="none" fill="#009ef1" stroke="#009ef1" stroke-width="0.500" stroke-opacity="1.000" stroke-linecap="round" stroke-linejoin="round" d="M 677.040 318.475 Q 677.040 318.670 677.040 316.514 Q 677.375 316.639 677.582 320.456 Q 677.790 324.273 676.793 331.122 Q 675.795 337.970 675.133 341.510 Q 674.470 345.050 673.873 347.500 Q 673.277 349.951 672.993 351.459 Q 672.709 352.966 672.320 355.671 Q 671.932 358.377 671.523 361.011 Q 671.113 363.646 670.940 365.060 Q 670.768 366.474 670.857 367.754 Q 670.947 369.034 670.754 373.225 Q 670.561 377.415 670.305 380.163 Q 670.048 382.911 669.620 386.280 Q 670.036 386.455 671.257 386.072 Q 672.478 385.689 675.306 385.028 Q 678.135 384.366 680.497 384.177 Q 682.858 383.987 684.859 384.013 Q 686.859 384.039 687.721 384.019 Q 688.584 383.999 689.825 383.866 Q 691.066 383.734 692.456 383.496 Q 693.847 383.257 694.716 382.957 Q 695.585 382.657 696.363 382.235 Q 697.141 381.812 697.306 381.638 Q 697.472 381.464 697.582 381.320 Q 697.692 381.176 697.735 381.029 Q 697.777 380.881 697.818 380.673 Q 697.859 380.466 697.905 380.134 Q 697.952 379.803 698.074 378.900 Q 698.197 377.998 698.330 377.380 Q 698.464 376.762 698.559 376.411 Q 698.655 376.060 698.725 375.781 Q 698.796 375.501 698.831 375.366 Q 698.866 375.231 698.934 374.982 Q 699.001 374.734 699.022 374.709 Q 699.043 374.684 699.134 374.196 Q 699.226 373.708 699.828 371.277 Q 700.429 368.846 701.096 366.868 Q 701.763 364.890 702.287 363.722 Q 702.811 362.553 703.762 360.733 Q 704.714 358.914 705.371 356.931 Q 706.028 354.948 706.303 352.024 Q 706.578 349.101 706.696 347.604 Q 706.814 346.107 706.826 344.080 Q 706.838 342.053 707.208 339.036 Q 707.578 336.019 707.833 334.506 Q 708.087 332.992 708.613 330.892 Q 709.140 328.793 709.321 326.029 Q 709.502 323.266 709.565 321.923 Q 709.627 320.580 709.500 319.811 Q 709.373 319.042 708.990 318.632 Q 708.608 318.221 708.357 318.006 "></path>
    <path id="STROKE_a690a475-900d-4310-8d45-5a0bc99a8f02" opacity="0.280" display="none" fill="#009ef1" stroke="#009ef1" stroke-width="0.500" stroke-opacity="1.000" stroke-linecap="round" stroke-linejoin="round" d="M 652.539 313.889 Q 652.432 313.426 652.443 313.498 Q 652.454 313.569 652.318 313.294 Q 652.181 313.019 650.970 307.327 Q 650.954 307.327 650.897 307.327 Q 650.969 306.868 650.583 309.115 Q 650.198 311.363 650.005 313.465 Q 649.812 315.567 649.601 318.278 Q 649.390 320.988 649.259 325.328 Q 649.128 329.667 648.895 332.622 Q 648.663 335.577 648.317 338.698 Q 647.972 341.820 647.972 344.711 Q 647.972 347.603 648.044 348.936 Q 648.115 350.269 647.792 353.029 Q 647.468 355.790 646.972 358.460 Q 646.476 361.130 646.380 363.222 Q 646.284 365.315 645.871 367.288 Q 645.459 369.261 645.078 370.217 Q 644.698 371.172 644.581 371.757 Q 644.465 372.341 644.499 372.601 Q 644.533 372.861 644.510 372.984 Q 644.486 373.106 645.026 373.841 Q 645.566 374.576 646.139 375.262 Q 646.712 375.948 647.161 376.556 Q 647.610 377.163 648.462 378.175 Q 649.314 379.188 649.707 379.587 Q 650.100 379.986 650.392 380.096 Q 650.683 380.205 650.817 380.229 Q 650.950 380.252 651.092 380.244 Q 651.234 380.236 651.383 380.239 Q 651.533 380.243 651.513 380.252 Q 651.493 380.262 651.816 380.259 Q 652.138 380.257 654.243 380.106 Q 656.349 379.955 658.637 380.291 Q 660.926 380.626 662.429 380.759 Q 663.932 380.891 664.848 380.908 Q 665.763 380.925 666.510 380.804 Q 667.257 380.682 667.901 380.429 Q 668.544 380.176 668.808 379.975 Q 669.071 379.773 669.157 379.629 Q 669.243 379.485 669.255 379.445 Q 669.268 379.404 669.307 379.103 Q 669.346 378.801 669.364 378.615 Q 669.382 378.429 669.505 377.283 Q 669.628 376.138 669.829 375.081 Q 670.029 374.024 670.253 373.389 Q 670.477 372.754 671.214 370.716 Q 671.952 368.678 672.329 367.599 Q 672.707 366.519 673.016 366.073 Q 673.324 365.626 674.018 362.881 Q 674.712 360.136 674.984 358.592 Q 675.255 357.047 675.280 356.052 Q 675.305 355.057 676.203 349.058 Q 677.102 343.059 677.745 339.552 Q 678.387 336.044 678.647 334.673 Q 678.907 333.302 679.310 332.035 Q 679.713 330.768 680.390 328.213 Q 681.067 325.658 681.421 324.028 Q 681.776 322.399 681.927 319.637 Q 682.077 316.876 681.967 315.367 Q 681.856 313.858 682.096 312.780 Q 682.335 311.702 683.049 311.313 Q 683.762 310.924 683.991 310.811 "></path>
    <path id="STROKE_20518980-efeb-4694-b6bb-6761303ee238" opacity="0.280" display="none" fill="#009ef1" stroke="#009ef1" stroke-width="0.500" stroke-opacity="1.000" stroke-linecap="round" stroke-linejoin="round" d="M 668.369 386.975 Q 667.873 386.693 667.869 386.698 Q 667.495 386.517 667.375 386.489 Q 667.255 386.461 667.377 386.452 Q 667.498 386.442 666.347 386.416 Q 666.003 386.618 665.571 390.740 Q 665.139 394.863 665.125 397.113 Q 665.111 399.363 665.101 400.614 Q 665.092 401.866 665.396 402.507 Q 665.700 403.149 666.057 403.369 Q 666.415 403.589 666.680 403.619 Q 666.945 403.649 666.972 403.656 Q 666.999 403.662 666.943 403.694 Q 666.888 403.725 669.079 403.866 Q 671.271 404.006 673.254 404.184 Q 675.237 404.362 676.222 404.602 Q 677.207 404.841 677.928 405.026 Q 678.648 405.211 679.051 405.317 Q 679.453 405.423 679.918 405.466 Q 680.384 405.508 681.754 405.598 Q 683.125 405.688 684.481 405.534 Q 685.837 405.379 686.779 404.993 Q 687.721 404.607 688.912 404.450 Q 690.103 404.293 691.988 403.788 Q 693.874 403.283 695.891 402.588 Q 697.907 401.893 699.872 401.173 Q 701.836 400.453 703.250 400.161 Q 704.663 399.869 705.776 399.883 Q 706.889 399.897 707.590 400.217 Q 708.292 400.537 709.098 400.941 Q 709.905 401.344 711.501 401.629 Q 713.097 401.914 714.307 402.088 Q 715.518 402.263 717.222 401.663 Q 718.925 401.064 719.602 400.727 Q 720.279 400.391 720.653 400.121 Q 721.027 399.852 721.204 399.618 Q 721.382 399.384 721.406 399.361 Q 721.430 399.338 721.500 399.232 Q 721.569 399.126 721.607 399.073 Q 721.646 399.019 721.612 399.057 Q 721.579 399.096 721.824 398.734 Q 722.070 398.372 722.398 397.880 Q 722.727 397.387 722.906 396.921 Q 723.084 396.456 723.112 396.178 Q 723.140 395.901 723.170 395.776 Q 723.201 395.651 723.218 395.523 Q 723.235 395.395 723.227 395.333 Q 723.220 395.271 723.219 395.302 Q 723.217 395.333 723.307 394.875 Q 723.398 394.416 723.317 393.908 Q 723.236 393.401 723.098 393.199 Q 722.961 392.997 722.915 392.908 Q 722.870 392.818 722.670 392.522 Q 722.470 392.225 722.554 392.343 Q 722.637 392.460 722.289 391.919 Q 721.941 391.379 721.516 390.811 Q 721.091 390.244 720.732 389.970 Q 720.374 389.697 720.291 389.598 Q 720.207 389.500 719.379 389.259 Q 718.551 389.018 717.913 388.875 Q 717.274 388.732 716.304 388.527 Q 715.334 388.322 714.834 388.243 Q 714.334 388.165 713.314 387.993 Q 712.294 387.821 710.646 387.192 Q 708.998 386.562 708.330 386.240 Q 707.662 385.918 705.526 385.140 Q 703.391 384.362 701.537 383.515 Q 699.682 382.669 697.845 381.785 Q 696.007 380.901 694.907 380.400 Q 693.807 379.898 692.880 379.880 Q 691.954 379.862 691.641 379.913 "></path>
    <path id="STROKE_ec79c2f3-321c-40f7-ba88-81e11073f96f" opacity="0.280" display="none" fill="#009ef1" stroke="#009ef1" stroke-width="0.500" stroke-opacity="1.000" stroke-linecap="round" stroke-linejoin="round" d="M 646.973 378.217 Q 647.116 377.515 647.141 377.892 Q 647.167 378.270 646.868 377.017 Q 646.570 375.765 646.483 374.108 Q 646.448 374.472 646.554 375.411 Q 646.659 376.349 646.673 378.051 Q 646.687 379.753 646.550 380.976 Q 646.414 382.199 646.085 383.631 Q 645.756 385.063 645.239 386.362 Q 644.721 387.661 644.311 388.920 Q 643.902 390.179 643.754 390.971 Q 643.605 391.763 643.684 392.248 Q 643.763 392.733 643.943 392.867 Q 644.124 393.001 644.409 393.125 Q 644.694 393.249 644.897 393.341 Q 645.101 393.434 645.066 393.408 Q 645.032 393.381 645.066 393.397 Q 645.101 393.412 645.799 393.715 Q 646.498 394.019 647.461 394.115 Q 648.425 394.212 649.537 394.196 Q 650.650 394.180 651.484 394.158 Q 652.317 394.136 653.008 394.231 Q 653.699 394.325 654.171 394.462 Q 654.643 394.599 655.304 394.758 Q 655.966 394.918 655.869 394.945 Q 655.772 394.973 656.712 395.162 Q 657.652 395.352 658.307 395.446 Q 658.961 395.540 659.361 395.539 Q 659.760 395.539 660.058 395.538 Q 660.356 395.537 660.320 395.522 Q 660.284 395.506 660.520 395.537 Q 660.756 395.569 661.359 395.563 Q 661.962 395.557 662.417 395.392 Q 662.873 395.228 663.183 395.077 Q 663.493 394.927 663.451 394.951 Q 663.409 394.975 663.498 394.928 Q 663.587 394.881 663.976 394.664 Q 664.365 394.446 664.570 394.346 Q 664.775 394.246 664.866 394.205 Q 664.956 394.165 664.877 394.192 Q 664.798 394.218 665.058 394.127 Q 665.318 394.037 666.104 393.621 Q 666.890 393.206 667.119 393.061 Q 667.349 392.917 667.422 392.885 Q 667.496 392.853 667.580 392.813 Q 667.665 392.773 667.814 392.734 Q 667.963 392.695 667.822 392.722 Q 667.682 392.750 669.161 392.042 Q 670.641 391.334 672.767 390.842 Q 672.794 390.767 672.876 390.452 Q 672.957 390.137 672.990 389.944 Q 673.022 389.751 673.029 389.792 Q 673.035 389.832 673.047 389.729 Q 673.058 389.626 673.363 387.789 Q 673.667 385.951 673.860 385.069 Q 674.053 384.187 674.293 383.566 Q 674.534 382.944 674.576 382.682 Q 674.618 382.419 674.609 382.467 Q 674.599 382.515 674.653 382.318 Q 674.707 382.121 674.752 381.815 Q 674.797 381.509 674.792 381.256 Q 674.788 381.002 674.789 380.963 Q 674.791 380.923 674.786 380.924 Q 674.782 380.925 674.799 380.774 Q 674.815 380.623 674.698 380.044 Q 674.582 379.465 674.622 379.563 Q 674.662 379.660 674.387 379.160 Q 674.111 378.660 673.807 378.253 Q 673.503 377.845 672.903 376.830 Q 672.303 375.815 672.236 375.631 "></path>
    <path id="STROKE_e1d56f18-96ef-4f4e-82ba-b89eb4e92da2" opacity="0.280" display="none" fill="#009ef1" stroke="#009ef1" stroke-width="0.500" stroke-opacity="1.000" stroke-linecap="round" stroke-linejoin="round" d="M 737.194 173.264 Q 737.075 173.264 736.632 173.264 Q 736.222 172.847 738.095 170.349 Q 739.968 167.851 741.167 166.466 Q 742.366 165.081 743.061 164.111 Q 743.756 163.141 744.036 162.836 Q 744.315 162.531 744.847 161.961 Q 745.378 161.391 745.762 161.004 Q 746.146 160.616 746.506 160.243 Q 746.866 159.870 746.941 159.792 Q 747.016 159.714 747.101 159.642 Q 747.186 159.569 747.130 159.583 Q 747.073 159.597 748.013 158.803 Q 748.953 158.008 750.598 156.732 Q 752.243 155.455 753.424 154.349 Q 754.605 153.242 755.054 152.742 Q 755.503 152.242 755.642 151.942 Q 755.781 151.642 755.860 151.504 Q 755.940 151.365 755.949 151.388 Q 755.958 151.410 756.013 151.388 Q 756.068 151.366 756.066 151.357 Q 756.064 151.349 756.505 151.121 Q 756.947 150.893 758.129 150.850 Q 759.311 150.806 760.022 150.818 Q 760.732 150.830 760.893 150.711 Q 761.054 150.592 761.155 150.473 Q 761.256 150.354 761.272 150.324 Q 761.288 150.293 761.312 150.288 Q 761.336 150.283 761.274 150.297 Q 761.211 150.312 761.712 150.123 Q 761.908 150.575 761.894 150.584 Q 762.152 150.985 762.416 153.402 Q 762.681 155.819 762.720 157.407 Q 762.760 158.996 762.487 160.488 Q 762.214 161.981 761.385 163.519 Q 760.555 165.058 759.535 166.176 Q 758.515 167.293 757.975 167.813 Q 757.435 168.333 757.138 168.632 Q 756.841 168.931 756.654 169.133 Q 756.468 169.336 756.517 169.274 Q 756.566 169.213 756.535 169.245 Q 756.504 169.276 756.256 169.537 Q 756.009 169.797 755.869 169.944 Q 755.728 170.091 754.997 170.672 Q 754.266 171.253 753.821 171.610 Q 753.376 171.967 752.921 172.326 Q 752.466 172.685 752.227 172.859 Q 751.989 173.034 751.889 173.095 Q 751.790 173.156 751.558 173.302 Q 751.325 173.447 751.355 173.427 Q 751.384 173.407 751.381 173.433 Q 751.378 173.458 751.026 173.525 Q 750.675 173.592 750.576 173.592 "></path>
    <path id="STROKE_17bb18a8-5584-4308-b83f-524982c33de8" opacity="0.280" display="none" fill="#009ef1" stroke="#009ef1" stroke-width="0.500" stroke-opacity="1.000" stroke-linecap="round" stroke-linejoin="round" d="M 706.471 162.248 Q 706.013 162.318 704.355 161.952 Q 704.331 162.156 704.494 161.557 Q 704.656 160.959 706.007 159.832 Q 707.359 158.706 708.334 158.008 Q 709.309 157.310 711.231 156.439 Q 713.153 155.568 714.470 155.146 Q 715.787 154.725 716.349 154.366 Q 716.911 154.006 717.641 153.599 Q 718.372 153.191 720.277 152.696 Q 722.182 152.201 723.787 151.634 Q 725.391 151.067 726.232 150.574 Q 727.072 150.081 727.408 149.978 Q 727.744 149.875 728.003 149.881 Q 728.263 149.888 728.361 149.885 Q 728.460 149.883 728.440 149.883 Q 728.420 149.883 728.400 149.904 Q 728.381 149.924 728.481 149.918 Q 728.582 149.913 728.980 150.554 Q 729.379 151.195 729.552 151.988 Q 729.724 152.781 729.786 153.074 Q 729.848 153.367 729.847 153.472 Q 729.846 153.576 729.966 154.426 Q 730.086 155.276 730.370 155.885 Q 730.653 156.494 730.853 156.821 Q 731.054 157.149 731.113 157.250 Q 731.173 157.352 731.293 157.502 Q 731.413 157.652 731.466 157.753 Q 731.518 157.853 731.555 158.003 Q 731.591 158.154 731.614 158.316 Q 731.637 158.478 731.584 158.497 Q 731.531 158.516 731.522 158.433 Q 731.513 158.350 730.185 160.390 Q 728.856 162.429 728.222 163.610 Q 727.588 164.790 727.277 165.330 Q 726.966 165.870 726.566 166.457 Q 726.165 167.044 725.952 167.341 Q 725.740 167.639 725.502 167.980 Q 725.264 168.322 725.111 168.558 Q 724.958 168.795 724.944 168.825 Q 724.930 168.855 724.912 168.884 Q 724.894 168.913 724.696 169.210 Q 724.498 169.506 724.481 169.534 Q 724.463 169.561 724.457 169.559 Q 724.450 169.557 724.375 169.738 Q 724.299 169.919 724.025 170.374 Q 723.751 170.830 723.583 171.028 Q 723.415 171.226 723.243 171.407 Q 723.072 171.589 722.887 171.760 Q 722.702 171.931 722.300 172.224 Q 721.897 172.516 721.619 172.687 Q 721.341 172.857 721.208 172.924 Q 721.076 172.992 721.081 172.987 Q 721.086 172.983 721.119 172.970 Q 721.151 172.958 720.879 173.074 Q 720.606 173.190 719.989 173.474 Q 719.373 173.757 719.023 173.929 Q 718.673 174.101 718.453 174.215 Q 718.233 174.328 718.100 174.401 Q 717.968 174.474 717.919 174.502 Q 717.871 174.530 717.674 174.641 Q 717.477 174.753 717.182 174.930 Q 716.888 175.108 716.526 175.325 Q 716.164 175.543 715.862 175.697 Q 715.560 175.850 715.518 175.893 Q 715.477 175.937 714.903 176.157 Q 714.328 176.377 713.814 176.571 Q 713.300 176.764 712.290 177.008 Q 711.280 177.252 710.635 177.381 Q 709.990 177.510 709.132 177.626 Q 708.274 177.741 708.222 177.772 "></path>
  </g>
  <g id="New_Layer_2" opacity="1.000">
    <path id="STROKE_a0af7f49-0f49-4dbe-a060-0611e2623860" opacity="1.000" fill="none" stroke="#000000" stroke-width="3.682" stroke-opacity="1.000" stroke-linecap="round" stroke-linejoin="round" d="M 667.046 101.569 L 666.420 100.898 Q 666.318 100.834 665.394 100.896 Q 664.469 100.959 662.487 101.867 Q 660.505 102.775 659.313 103.523 Q 658.121 104.271 657.601 104.637 Q 657.082 105.003 656.479 105.499 Q 655.877 105.995 654.892 106.926 Q 653.907 107.856 653.015 108.915 Q 652.123 109.973 651.271 111.112 Q 650.420 112.250 649.771 113.130 Q 649.122 114.010 648.574 114.771 Q 648.027 115.531 647.635 116.123 Q 647.242 116.714 646.970 117.157 Q 646.697 117.601 646.169 118.568 Q 645.642 119.534 645.378 120.052 Q 645.114 120.569 644.939 120.964 Q 644.765 121.359 644.731 121.416 Q 644.697 121.474 644.481 122.277 Q 644.265 123.080 644.200 123.799 Q 644.135 124.517 644.126 124.929 Q 644.116 125.341 644.131 125.535 Q 644.146 125.729 644.226 126.443 Q 644.306 127.157 644.412 127.709 Q 644.518 128.260 644.534 128.401 Q 644.549 128.542 644.952 129.278 Q 645.355 130.014 645.787 130.489 Q 646.219 130.963 646.416 131.123 Q 646.613 131.284 647.185 131.616 Q 647.757 131.948 648.766 132.125 Q 649.774 132.302 650.414 132.263 Q 651.054 132.225 651.856 132.079 Q 652.658 131.933 655.903 131.197 Q 659.149 130.460 660.215 130.046 Q 661.280 129.632 661.758 129.418 Q 662.236 129.205 662.706 129.012 Q 663.176 128.818 664.981 127.944 Q 666.787 127.069 667.985 126.419 Q 669.183 125.768 670.396 125.117 Q 671.610 124.466 673.217 123.340 Q 674.825 122.215 675.774 121.395 Q 676.724 120.576 677.177 120.093 Q 677.630 119.611 677.988 119.177 Q 678.346 118.744 678.654 118.306 Q 678.962 117.869 679.184 117.465 Q 679.406 117.062 679.631 116.690 Q 679.856 116.319 680.562 115.211 Q 681.268 114.103 681.854 113.094 Q 682.439 112.085 682.656 111.637 Q 682.873 111.189 683.116 110.644 Q 683.360 110.100 683.943 108.699 Q 684.527 107.297 685.021 106.250 Q 685.515 105.203 686.220 103.893 Q 686.926 102.584 687.365 101.782 Q 687.804 100.980 687.900 100.776 Q 687.996 100.572 688.026 100.539 Q 688.056 100.505 688.173 100.157 Q 688.291 99.810 688.314 99.618 Q 688.336 99.426 688.175 98.758 L 687.819 98.630 Q 687.015 98.744 687.003 98.742 Q 686.990 98.741 686.381 98.853 Q 685.773 98.966 685.305 99.000 Q 684.837 99.035 684.202 99.067 Q 683.567 99.100 682.379 99.088 Q 681.190 99.076 679.971 99.063 Q 678.751 99.051 677.809 99.076 Q 676.866 99.100 676.683 99.102 Q 676.500 99.104 675.832 99.178 Q 675.164 99.252 674.588 99.363 Q 674.012 99.475 673.801 99.507 Q 673.589 99.538 673.537 99.567 Q 673.484 99.596 672.316 99.827 Q 671.147 100.058 669.793 100.270 Q 668.438 100.483 667.692 100.702 Q 666.946 100.920 666.608 101.038 "></path>
    <path id="STROKE_4e10df9c-9642-4593-9163-035cf4e7ad61" opacity="1.000" fill="none" stroke="#000000" stroke-width="4.508" stroke-opacity="1.000" stroke-linecap="round" stroke-linejoin="round" d="M 652.372 132.920 Q 652.245 132.978 651.539 133.040 Q 651.469 133.138 651.072 134.635 Q 650.674 136.132 650.842 138.077 Q 651.009 140.023 651.490 141.369 Q 651.970 142.715 652.325 143.417 Q 652.680 144.118 652.853 144.450 Q 653.027 144.781 653.294 145.174 Q 653.561 145.568 653.770 145.836 Q 653.979 146.104 654.191 146.331 Q 654.402 146.558 654.506 146.651 Q 654.609 146.745 654.784 146.865 Q 654.959 146.986 655.148 147.144 Q 655.337 147.303 655.671 147.640 Q 656.005 147.978 656.414 148.421 Q 656.995 148.714 658.104 149.373 "></path>
    <path id="STROKE_5f427f55-3d2a-4012-9c11-1f24cd6048e1" opacity="1.000" fill="none" stroke="#000000" stroke-width="2.107" stroke-opacity="1.000" stroke-linecap="round" stroke-linejoin="round" d="M 657.009 148.514 Q 656.918 148.492 654.570 147.075 L 654.164 146.952 "></path>
    <path id="STROKE_2f2efae6-5ae7-4d2f-99f1-b67459c2a2e3" opacity="1.000" fill="none" stroke="#000000" stroke-width="3.776" stroke-opacity="1.000" stroke-linecap="round" stroke-linejoin="round" d="M 654.696 147.248 Q 654.794 147.296 656.124 147.701 Q 657.454 148.107 660.371 148.337 Q 663.288 148.568 664.531 148.611 Q 665.774 148.654 666.691 148.693 Q 667.607 148.733 668.345 148.807 Q 669.083 148.882 669.660 149.014 Q 670.236 149.146 670.825 149.422 Q 671.414 149.698 671.836 149.978 Q 672.257 150.257 672.516 150.473 Q 672.776 150.688 673.012 150.923 Q 673.249 151.157 673.428 151.379 Q 673.607 151.600 673.810 151.815 Q 674.013 152.029 674.392 152.391 Q 674.771 152.753 674.844 152.881 Q 674.918 153.008 675.216 153.333 Q 675.514 153.658 675.744 153.864 Q 675.974 154.071 676.103 154.234 Q 676.232 154.397 676.247 154.440 Q 676.263 154.483 675.909 154.639 Q 675.555 154.796 675.320 154.881 "></path>
    <path id="STROKE_6c70ec5b-01ce-499f-ac94-fb77e48f30e5" opacity="1.000" fill="none" stroke="#000000" stroke-width="2.294" stroke-opacity="1.000" stroke-linecap="round" stroke-linejoin="round" d="M 675.320 154.881 Q 674.624 154.843 674.271 154.816 Q 673.917 154.788 673.435 154.777 Q 672.953 154.766 672.337 154.946 Q 671.720 155.126 671.038 155.210 Q 670.357 155.294 669.652 155.271 Q 668.947 155.248 668.753 155.234 Q 668.559 155.220 668.028 155.103 Q 667.496 154.986 666.834 154.733 Q 666.173 154.480 665.654 154.332 Q 665.134 154.184 664.467 154.050 Q 663.800 153.915 662.836 153.819 Q 661.873 153.723 660.598 153.684 Q 659.323 153.645 658.811 153.650 Q 658.298 153.655 656.419 154.065 Q 654.540 154.475 653.613 154.691 Q 652.685 154.907 652.352 154.979 Q 652.018 155.052 651.245 155.207 Q 650.473 155.363 650.249 155.391 Q 650.026 155.419 649.301 155.621 Q 648.576 155.823 647.734 156.144 Q 646.893 156.465 646.279 156.757 Q 645.666 157.049 645.183 157.310 Q 644.700 157.570 644.198 157.884 Q 643.695 158.197 643.138 158.569 "></path>
    <path id="STROKE_4a0f3c44-bdfc-4098-b57d-8277199241db" opacity="1.000" fill="none" stroke="#000000" stroke-width="3.813" stroke-opacity="1.000" stroke-linecap="round" stroke-linejoin="round" d="M 642.575 159.194 Q 642.525 159.310 642.383 159.502 Q 642.241 159.695 641.807 160.393 Q 641.374 161.091 641.175 161.461 Q 640.976 161.830 640.884 162.022 Q 640.792 162.215 640.202 163.313 Q 639.613 164.412 639.041 165.329 Q 638.469 166.246 638.101 166.789 Q 637.733 167.332 637.516 167.687 Q 637.299 168.042 636.955 168.693 Q 636.612 169.343 636.352 169.856 Q 636.091 170.370 635.886 170.849 Q 635.682 171.328 635.568 171.716 Q 635.454 172.104 635.283 173.700 Q 635.112 175.296 635.115 176.788 Q 635.118 178.281 635.152 179.062 Q 635.187 179.844 635.204 180.244 Q 635.220 180.643 635.409 182.095 L 635.439 182.456 Q 635.434 182.555 635.468 182.806 Q 635.502 183.057 635.587 183.472 Q 635.671 183.886 635.853 184.873 "></path>
    <path id="STROKE_0e825b1b-3f12-4195-984e-8fc4e3e68b6c" opacity="1.000" fill="none" stroke="#000000" stroke-width="5.156" stroke-opacity="1.000" stroke-linecap="round" stroke-linejoin="round" d="M 635.885 185.272 Q 635.881 185.405 636.095 186.852 Q 636.308 188.299 636.496 189.183 Q 636.684 190.068 636.920 190.886 Q 637.156 191.705 637.677 193.233 "></path>
    <path id="STROKE_4fd8d73a-b0ba-4019-ac14-68fc853e1731" opacity="1.000" fill="none" stroke="#000000" stroke-width="3.750" stroke-opacity="1.000" stroke-linecap="round" stroke-linejoin="round" d="M 638.167 194.725 Q 638.755 196.299 638.774 196.323 Q 638.793 196.346 639.180 197.505 Q 639.567 198.664 640.055 200.425 Q 640.543 202.186 640.827 203.273 Q 641.111 204.360 641.228 204.763 Q 641.344 205.166 641.561 206.611 Q 641.777 208.057 641.803 209.160 Q 641.829 210.263 641.848 210.958 Q 641.868 211.653 641.928 212.270 Q 641.988 212.888 642.108 213.477 Q 642.229 214.067 642.962 215.598 Q 643.695 217.130 644.893 218.925 Q 646.091 220.721 647.175 222.208 Q 648.259 223.695 648.738 224.414 Q 649.217 225.134 649.540 225.649 Q 649.862 226.164 650.079 226.458 Q 650.296 226.752 650.695 227.189 Q 651.094 227.626 651.444 227.937 Q 651.795 228.248 652.186 228.548 Q 652.578 228.849 652.822 229.036 Q 653.065 229.223 654.579 230.081 Q 656.092 230.939 656.626 231.169 Q 657.160 231.400 658.244 231.776 Q 659.328 232.151 659.890 232.316 Q 660.452 232.481 660.950 232.583 Q 661.447 232.685 661.835 232.733 Q 662.223 232.780 662.804 232.854 Q 663.386 232.929 663.998 233.000 Q 664.609 233.071 664.738 233.090 Q 664.866 233.109 665.118 233.121 Q 665.371 233.133 666.793 233.280 Q 668.216 233.426 669.454 233.668 Q 670.693 233.910 671.353 234.025 Q 672.013 234.139 672.912 234.277 Q 673.811 234.414 674.771 234.557 Q 675.731 234.700 676.540 234.834 "></path>
    <path id="STROKE_3a681958-f82d-4a18-aeef-93d5e14769e1" opacity="1.000" fill="none" stroke="#000000" stroke-width="0.694" stroke-opacity="1.000" stroke-linecap="round" stroke-linejoin="round" d="M 685.252 153.022 L 684.127 152.428 "></path>
    <path id="STROKE_5b9af99f-3d7d-4b42-b458-f9101a0f69e5" opacity="1.000" fill="none" stroke="#000000" stroke-width="2.490" stroke-opacity="1.000" stroke-linecap="round" stroke-linejoin="round" d="M 682.803 152.061 Q 682.757 152.083 681.012 152.327 Q 681.149 152.603 682.869 153.656 Q 684.588 154.709 686.036 155.456 Q 687.483 156.204 688.068 156.539 Q 688.653 156.874 689.630 157.354 Q 690.606 157.835 691.131 158.122 Q 691.656 158.409 691.794 158.528 Q 691.932 158.646 691.980 158.659 Q 692.029 158.672 692.333 159.016 Q 692.637 159.360 692.721 159.498 Q 692.806 159.636 692.879 159.847 Q 692.952 160.058 693.011 160.124 Q 693.071 160.190 693.099 160.212 Q 693.127 160.235 692.829 161.686 "></path>
    <path id="STROKE_5eefcb9d-bdc7-4ee5-8053-d164ad7525a6" opacity="1.000" fill="none" stroke="#000000" stroke-width="4.522" stroke-opacity="1.000" stroke-linecap="round" stroke-linejoin="round" d="M 671.183 187.264 L 671.289 187.510 Q 671.510 187.691 672.480 187.960 Q 673.450 188.228 675.169 189.105 Q 676.887 189.982 677.739 190.521 Q 678.592 191.060 679.514 191.709 Q 680.436 192.357 680.748 192.562 Q 681.061 192.767 681.240 192.866 Q 681.418 192.966 681.508 192.996 Q 681.598 193.026 682.720 193.876 Q 683.843 194.725 684.602 195.227 Q 685.362 195.729 686.166 196.119 Q 686.970 196.510 689.067 197.908 Q 691.164 199.307 692.417 200.305 Q 693.669 201.303 695.318 202.685 Q 696.966 204.068 698.331 205.069 Q 699.696 206.071 700.769 206.681 Q 701.841 207.292 702.665 207.657 Q 703.489 208.021 705.562 208.877 Q 707.635 209.734 708.878 210.128 Q 710.122 210.522 711.698 210.569 Q 713.273 210.616 714.092 210.469 Q 714.910 210.322 715.575 210.063 Q 716.240 209.804 716.675 209.532 Q 717.109 209.260 717.254 209.144 Q 717.399 209.027 718.029 208.459 "></path>
    <path id="STROKE_59431e43-94bf-4e66-ad58-5814296506f6" opacity="1.000" fill="none" stroke="#000000" stroke-width="4.156" stroke-opacity="1.000" stroke-linecap="round" stroke-linejoin="round" d="M 694.757 163.577 Q 694.786 163.588 694.865 163.591 Q 694.943 163.595 696.904 163.709 Q 698.865 163.823 700.648 163.640 Q 702.432 163.457 702.969 163.325 Q 703.507 163.193 704.434 162.850 Q 705.362 162.507 705.918 162.239 Q 706.475 161.970 706.726 161.827 Q 706.978 161.684 707.352 161.408 Q 707.539 161.277 709.161 162.073 Q 710.783 162.870 711.725 163.656 Q 712.667 164.442 713.129 164.921 Q 713.591 165.401 713.885 165.750 Q 714.179 166.099 714.263 166.177 Q 714.347 166.256 714.720 166.806 Q 715.093 167.356 715.258 167.650 Q 715.423 167.943 715.737 168.737 Q 716.051 169.531 716.136 169.825 Q 716.221 170.120 716.397 170.806 Q 716.573 171.493 716.705 171.967 "></path>
    <path id="STROKE_a0f6be27-f1fa-4daf-8d50-871b6f934581" opacity="1.000" fill="none" stroke="#000000" stroke-width="5.045" stroke-opacity="1.000" stroke-linecap="round" stroke-linejoin="round" d="M 716.768 172.569 Q 716.490 173.314 716.479 173.361 Q 716.469 173.408 716.345 173.691 Q 716.222 173.973 715.956 174.300 Q 715.690 174.628 715.538 174.727 Q 715.386 174.826 714.819 175.084 "></path>
    <path id="STROKE_a59d0235-b6c6-4658-ae89-51ad2de24cb2" opacity="1.000" fill="none" stroke="#000000" stroke-width="4.367" stroke-opacity="1.000" stroke-linecap="round" stroke-linejoin="round" d="M 687.639 153.288 Q 687.417 153.225 686.493 153.116 Q 685.570 153.007 684.933 152.706 Q 684.297 152.405 684.104 152.159 Q 683.911 151.913 683.842 151.764 Q 683.773 151.615 683.818 151.040 Q 683.862 150.465 684.069 149.916 Q 684.277 149.366 684.488 149.001 Q 684.700 148.636 684.939 148.162 Q 685.177 147.688 685.385 147.219 Q 685.593 146.749 685.670 146.572 Q 685.746 146.395 685.920 145.925 Q 686.094 145.456 686.299 144.993 Q 686.504 144.529 686.627 144.302 Q 686.751 144.074 687.676 142.683 Q 688.601 141.293 689.066 140.584 Q 689.531 139.876 689.658 139.595 Q 689.786 139.314 689.844 139.056 Q 689.902 138.799 689.917 138.751 Q 689.932 138.703 690.015 137.887 Q 690.098 137.072 690.160 135.983 Q 690.222 134.894 690.222 134.724 Q 690.221 134.554 690.261 133.999 Q 690.300 133.445 690.297 133.155 Q 690.294 132.866 690.306 132.823 Q 690.318 132.780 690.257 131.740 Q 690.196 130.700 690.124 130.093 Q 690.053 129.486 689.955 129.078 Q 689.858 128.670 689.791 128.400 Q 689.725 128.129 689.197 126.639 Q 688.669 125.150 688.567 124.912 Q 688.464 124.674 688.069 123.673 Q 687.675 122.673 687.349 121.854 Q 687.024 121.034 686.423 119.499 Q 686.047 118.472 685.961 118.257 Q 685.875 118.043 685.873 117.955 Q 685.872 117.868 684.861 115.577 Q 683.850 113.286 683.762 113.084 "></path>
    <path id="STROKE_c8ea3a99-50f3-4941-b797-ad733ae670d3" opacity="1.000" fill="none" stroke="#000000" stroke-width="2.803" stroke-opacity="1.000" stroke-linecap="round" stroke-linejoin="round" d="M 651.380 226.409 Q 651.102 226.579 649.669 227.282 Q 648.235 227.985 648.026 228.135 Q 647.817 228.286 647.522 228.586 Q 647.228 228.887 647.183 228.965 Q 647.139 229.042 647.040 229.158 Q 646.942 229.273 646.485 230.349 Q 646.028 231.426 645.928 233.310 Q 645.829 235.193 646.115 236.838 Q 646.400 238.482 646.580 239.311 Q 646.759 240.139 646.806 240.313 Q 646.853 240.487 646.914 241.090 Q 646.975 241.694 646.999 242.475 Q 647.023 243.256 647.026 243.554 Q 647.028 243.852 647.038 244.312 Q 647.048 244.771 647.061 245.308 Q 647.073 245.845 647.053 246.333 Q 647.032 246.822 646.964 247.315 Q 646.896 247.808 646.886 247.836 Q 646.875 247.864 646.769 248.780 Q 646.663 249.696 646.627 250.107 Q 646.590 250.518 646.502 251.627 Q 646.415 252.736 646.352 253.493 Q 646.288 254.250 646.205 255.285 Q 646.121 256.319 645.980 258.993 Q 645.840 261.667 645.678 264.918 Q 645.516 268.169 645.387 271.919 Q 645.257 275.668 645.077 277.627 Q 644.896 279.587 644.749 280.520 Q 644.602 281.454 644.372 282.492 Q 644.143 283.531 643.889 284.781 Q 643.636 286.031 643.603 286.870 Q 643.571 287.709 643.591 288.110 Q 643.611 288.511 643.973 290.292 Q 644.335 292.074 644.597 293.169 Q 644.859 294.264 645.434 296.401 Q 646.009 298.537 646.453 299.814 Q 646.896 301.091 647.713 302.700 Q 648.529 304.310 650.261 306.355 Q 651.994 308.400 653.253 309.489 Q 654.511 310.579 655.105 311.070 Q 655.699 311.561 657.819 312.973 Q 659.939 314.385 661.271 314.906 Q 662.604 315.427 663.252 315.510 Q 663.901 315.594 664.249 315.557 Q 664.597 315.521 664.831 315.389 Q 665.064 315.258 665.326 315.085 Q 665.589 314.912 666.052 314.483 Q 666.515 314.054 666.579 313.984 Q 666.643 313.914 666.781 313.419 Q 666.919 312.924 666.849 311.852 Q 666.779 310.780 665.931 308.084 Q 665.082 305.389 664.279 302.498 Q 663.476 299.607 663.037 297.957 Q 662.598 296.306 662.081 294.500 Q 661.563 292.693 661.268 291.373 Q 660.972 290.054 660.838 289.421 Q 660.704 288.788 660.495 285.428 Q 660.285 282.069 661.456 275.765 Q 661.546 275.830 661.627 280.813 Q 661.709 285.797 661.744 289.699 Q 661.779 293.601 662.129 296.752 Q 662.480 299.903 662.736 301.312 Q 662.991 302.720 663.585 305.703 Q 664.179 308.685 664.441 310.157 Q 664.702 311.628 664.892 312.344 Q 665.083 313.059 665.313 313.577 Q 665.542 314.095 667.018 316.355 Q 668.494 318.615 669.323 319.842 Q 670.153 321.069 670.498 321.665 Q 670.844 322.261 671.258 323.226 Q 671.673 324.192 672.007 324.847 Q 672.342 325.502 672.620 325.970 Q 672.898 326.438 673.040 326.647 Q 673.183 326.856 674.260 328.168 Q 675.338 329.481 675.787 329.922 Q 676.235 330.363 676.815 330.613 Q 677.394 330.863 677.731 330.932 Q 678.068 331.002 678.782 331.088 Q 679.497 331.173 680.056 331.187 Q 680.615 331.202 681.067 331.180 Q 681.519 331.158 682.455 331.015 Q 683.392 330.872 683.650 330.829 Q 683.908 330.786 684.093 330.771 Q 684.277 330.757 686.272 330.362 Q 686.714 330.141 688.297 329.975 Q 689.880 329.808 691.687 329.712 Q 693.494 329.616 694.894 329.561 Q 696.294 329.506 697.156 329.414 Q 698.019 329.322 698.420 329.279 Q 698.821 329.235 700.603 328.500 Q 702.385 327.766 703.542 327.136 Q 704.699 326.506 705.426 326.095 Q 706.152 325.683 707.080 325.180 Q 708.007 324.677 708.666 324.393 Q 709.324 324.110 709.999 323.914 Q 710.673 323.718 711.889 323.508 Q 713.104 323.298 713.148 323.283 Q 713.191 323.268 714.191 323.037 Q 715.190 322.805 715.905 322.540 Q 716.620 322.276 717.063 321.970 Q 717.506 321.664 717.642 321.554 Q 717.778 321.444 718.359 321.007 Q 718.941 320.571 719.355 320.225 Q 719.769 319.879 720.055 319.575 Q 720.342 319.271 720.349 319.250 Q 720.356 319.229 720.794 318.655 Q 721.233 318.082 721.395 317.704 Q 721.557 317.326 721.616 317.031 Q 721.676 316.736 721.713 316.562 Q 721.751 316.388 721.819 315.687 Q 721.886 314.986 721.738 312.238 Q 721.590 309.491 721.536 304.607 Q 721.483 299.724 721.463 298.464 Q 721.443 297.203 721.244 293.972 Q 721.044 290.740 720.894 288.359 Q 720.745 285.978 720.569 284.156 Q 720.394 282.333 720.284 281.208 Q 720.173 280.084 719.764 278.042 Q 719.355 276.001 719.028 274.845 Q 718.701 273.688 718.031 271.142 Q 717.360 268.596 716.538 264.880 Q 715.716 261.164 715.344 258.682 Q 714.972 256.201 714.737 254.273 Q 714.502 252.345 714.023 250.324 Q 713.544 248.303 713.046 246.728 Q 712.548 245.152 711.581 243.246 Q 710.614 241.340 709.152 238.634 Q 707.690 235.928 707.415 235.294 Q 707.140 234.660 706.856 234.037 Q 706.572 233.414 706.137 232.478 Q 705.701 231.541 705.352 230.976 Q 705.002 230.412 704.893 230.280 Q 704.784 230.148 704.160 229.426 Q 704.107 229.416 703.967 229.424 Q 703.828 229.433 703.621 229.435 Q 703.414 229.436 702.960 229.374 Q 702.505 229.312 702.457 229.296 Q 702.408 229.280 701.544 229.162 Q 700.680 229.045 699.605 229.023 Q 698.530 229.000 698.375 228.993 Q 698.220 228.986 697.697 229.003 Q 697.174 229.020 697.151 229.022 Q 697.128 229.024 697.312 228.960 Q 697.496 228.896 697.755 228.782 Q 698.013 228.669 698.413 228.476 Q 698.814 228.283 699.391 227.944 Q 699.968 227.605 700.498 227.205 Q 701.028 226.804 701.513 226.285 Q 701.997 225.767 702.267 224.971 Q 702.536 224.176 702.606 223.547 Q 702.676 222.918 702.728 222.419 Q 702.781 221.919 702.779 221.900 Q 702.777 221.880 702.911 221.108 Q 703.045 220.337 703.310 219.608 Q 703.575 218.880 703.881 218.103 Q 704.188 217.327 704.630 216.168 Q 705.071 215.008 705.306 214.397 Q 705.541 213.787 705.642 213.561 Q 705.744 213.336 706.007 212.731 Q 706.270 212.125 706.438 211.819 Q 706.607 211.513 706.753 211.284 Q 706.899 211.056 706.956 211.042 Q 707.232 211.159 707.296 211.213 Q 707.360 211.266 707.743 211.862 Q 708.125 212.457 708.489 213.470 Q 708.853 214.483 709.217 216.355 Q 709.581 218.228 709.673 220.419 Q 709.765 222.610 709.625 223.760 Q 709.484 224.911 709.067 226.855 Q 708.966 227.019 708.832 227.310 Q 708.698 227.600 708.161 228.621 Q 707.625 229.643 707.364 230.189 Q 707.102 230.736 707.034 231.054 Q 706.966 231.372 706.954 231.711 Q 706.942 232.051 706.972 232.297 Q 707.003 232.543 707.098 232.808 Q 707.194 233.073 707.283 233.241 Q 707.372 233.410 707.373 233.444 Q 707.375 233.478 708.020 233.935 Q 708.665 234.391 709.118 234.702 "></path>
    <path id="STROKE_3dd0124d-a9c2-43bd-b5e7-72b0e9542c95" opacity="1.000" fill="none" stroke="#000000" stroke-width="2.436" stroke-opacity="1.000" stroke-linecap="round" stroke-linejoin="round" d="M 679.385 333.967 Q 679.244 333.859 679.202 333.767 Q 679.260 333.847 679.320 338.041 Q 679.379 342.234 679.212 345.848 Q 679.046 349.462 678.881 351.925 Q 678.717 354.387 678.437 357.303 Q 678.157 360.218 677.721 362.203 Q 677.285 364.189 676.879 365.323 Q 676.472 366.458 675.842 367.973 Q 675.212 369.489 674.996 370.052 Q 674.780 370.615 674.019 372.693 Q 673.257 374.771 672.874 376.176 Q 672.490 377.582 672.270 379.748 Q 672.049 381.914 671.967 383.841 Q 671.986 384.287 671.984 384.386 Q 671.983 384.485 673.263 388.371 Q 674.006 388.887 674.836 389.284 Q 675.437 389.499 676.964 389.786 Q 678.490 390.073 679.189 390.113 Q 679.888 390.153 680.814 390.059 Q 681.739 389.965 682.403 389.880 Q 683.067 389.794 683.991 389.631 "></path>
    <path id="STROKE_71b82e68-54a4-40a9-baaa-e8cac135afa5" opacity="1.000" fill="none" stroke="#000000" stroke-width="2.813" stroke-opacity="1.000" stroke-linecap="round" stroke-linejoin="round" d="M 712.662 324.077 L 712.312 323.077 Q 712.167 323.079 711.577 324.224 Q 710.988 325.370 710.459 326.872 Q 709.929 328.373 709.179 331.107 Q 708.429 333.840 707.908 336.407 Q 707.386 338.974 706.952 340.907 Q 706.518 342.840 706.193 343.926 Q 705.867 345.011 705.649 345.612 Q 705.430 346.212 704.898 347.931 Q 704.366 349.650 704.041 350.948 Q 703.716 352.246 703.408 353.227 Q 703.100 354.209 702.307 356.640 Q 701.514 359.071 700.959 361.827 Q 700.403 364.582 700.040 366.326 Q 699.677 368.070 699.223 369.812 Q 698.769 371.554 698.397 372.711 Q 698.026 373.868 697.096 376.227 Q 696.166 378.586 695.500 380.349 Q 694.834 382.112 694.278 383.399 Q 693.722 384.686 693.483 385.095 Q 693.243 385.503 692.817 386.023 Q 692.391 386.542 692.052 386.863 Q 691.713 387.184 691.647 387.213 Q 691.581 387.241 690.905 387.583 Q 690.230 387.926 689.880 388.072 Q 689.530 388.218 689.330 388.306 Q 689.130 388.394 689.087 388.423 Q 689.044 388.453 688.037 388.809 Q 687.031 389.165 684.531 389.110 Q 684.456 389.050 683.595 388.272 "></path>
    <path id="STROKE_6e1b547d-d83b-445e-84d4-f00789b04af1" opacity="1.000" fill="none" stroke="#000000" stroke-width="2.657" stroke-opacity="1.000" stroke-linecap="round" stroke-linejoin="round" d="M 672.822 391.717 Q 672.797 391.660 672.499 388.138 Q 672.516 388.084 672.249 388.055 Q 671.982 388.027 671.450 388.663 Q 670.917 389.300 670.048 391.269 Q 669.180 393.239 668.902 394.219 Q 668.624 395.199 668.463 397.357 Q 668.302 399.515 668.406 400.479 Q 668.510 401.443 668.711 402.102 Q 668.911 402.761 669.017 402.981 Q 669.123 403.201 669.397 403.632 Q 669.672 404.063 669.944 404.370 Q 670.216 404.677 670.714 405.098 Q 671.211 405.518 671.385 405.634 Q 671.558 405.749 671.823 405.887 Q 672.087 406.026 672.663 406.308 Q 673.239 406.591 673.739 406.873 L 674.373 407.250 Q 674.484 407.337 675.297 407.652 Q 676.110 407.966 676.613 408.113 Q 677.115 408.260 678.560 408.369 Q 680.006 408.477 681.291 408.222 Q 682.576 407.967 683.562 407.605 Q 684.549 407.242 685.483 406.807 Q 686.417 406.373 686.885 406.198 Q 687.354 406.024 688.170 405.775 Q 688.985 405.526 690.465 405.211 Q 691.945 404.896 692.096 404.882 Q 692.246 404.868 692.728 404.797 Q 693.210 404.725 693.686 404.640 Q 694.163 404.554 694.789 404.470 L 695.303 404.421 Q 695.503 404.372 696.419 404.306 Q 697.334 404.240 698.748 404.295 Q 700.161 404.350 700.893 404.383 Q 701.626 404.416 703.303 404.475 Q 704.980 404.534 707.224 404.315 L 707.866 404.092 "></path>
    <path id="STROKE_f3258d03-8b56-4bc9-90bb-07a2c81ec8b3" opacity="1.000" fill="none" stroke="#000000" stroke-width="3.023" stroke-opacity="1.000" stroke-linecap="round" stroke-linejoin="round" d="M 694.300 388.905 Q 694.214 388.547 694.171 388.405 Q 694.127 388.262 694.102 387.943 Q 694.077 387.624 694.109 387.487 Q 694.141 387.349 694.183 387.155 Q 694.224 386.960 694.341 386.839 Q 694.458 386.718 694.708 386.655 Q 694.958 386.592 695.123 386.554 Q 695.287 386.516 696.692 387.261 Q 698.098 388.005 699.501 388.955 Q 700.904 389.905 701.569 390.315 Q 702.233 390.724 702.450 390.861 Q 702.667 390.997 703.317 391.351 Q 703.966 391.705 704.419 391.917 Q 704.872 392.129 705.036 392.187 Q 705.201 392.246 706.365 392.674 Q 707.530 393.103 708.722 393.437 Q 709.914 393.771 711.612 393.949 Q 713.311 394.128 714.447 394.341 Q 715.583 394.554 716.000 394.725 Q 716.416 394.896 717.460 395.467 L 718.120 396.018 L 718.409 396.285 Q 718.732 396.800 718.941 397.250 Q 719.150 397.701 719.321 398.307 Q 719.491 398.914 719.557 399.450 Q 719.623 399.986 719.566 400.476 Q 719.508 400.967 719.363 401.298 Q 719.218 401.629 718.944 401.997 Q 718.670 402.365 718.656 402.373 Q 718.643 402.381 718.182 402.741 Q 717.721 403.102 717.119 403.380 Q 716.518 403.659 715.986 403.760 Q 715.455 403.860 715.086 403.852 Q 714.717 403.845 713.244 403.310 "></path>
    <path id="STROKE_f6fa4717-4108-4049-b06b-8eb4f03a367a" opacity="1.000" fill="none" stroke="#000000" stroke-width="2.861" stroke-opacity="1.000" stroke-linecap="round" stroke-linejoin="round" d="M 652.309 311.936 Q 652.242 311.717 652.057 310.450 Q 651.872 309.184 651.633 308.545 Q 651.395 307.906 651.212 307.685 Q 651.029 307.463 650.786 307.308 Q 650.612 307.272 650.708 311.466 Q 650.804 315.659 651.014 319.475 Q 651.224 323.291 651.243 325.307 Q 651.262 327.324 651.286 328.917 Q 651.310 330.510 651.308 331.229 Q 651.307 331.947 651.232 333.230 Q 651.156 334.513 650.593 337.364 Q 650.030 340.215 649.742 341.878 Q 649.454 343.541 649.317 345.609 Q 649.180 347.676 649.158 348.771 Q 649.136 349.867 649.145 353.886 Q 649.154 357.906 649.249 360.528 Q 649.345 363.150 649.389 364.668 Q 649.433 366.186 649.463 367.434 Q 649.494 368.681 649.547 369.601 Q 649.600 370.521 649.759 371.220 Q 649.919 371.918 649.996 372.508 Q 650.073 373.097 650.104 373.453 Q 650.134 373.808 650.160 373.895 Q 650.186 373.981 650.195 374.542 Q 650.204 375.102 650.216 375.377 Q 650.228 375.653 650.283 375.929 Q 650.339 376.204 650.393 376.400 Q 650.447 376.595 650.548 376.771 Q 650.649 376.947 650.855 377.179 Q 651.060 377.411 652.125 378.058 Q 653.190 378.705 653.619 378.830 Q 654.049 378.955 654.813 379.079 Q 655.578 379.203 656.979 379.264 Q 658.380 379.326 658.880 379.306 Q 659.381 379.287 660.536 379.182 Q 661.691 379.076 662.046 379.017 Q 662.400 378.957 662.995 378.735 Q 663.590 378.513 664.334 378.081 Q 665.078 377.649 667.141 374.391 Q 667.696 373.647 667.846 373.446 Q 667.995 373.245 668.312 372.731 Q 668.629 372.217 668.893 371.742 Q 669.156 371.266 669.374 370.782 Q 669.591 370.298 669.629 370.247 Q 669.667 370.195 670.096 368.776 Q 670.525 367.357 671.254 364.238 Q 671.984 361.119 672.307 359.595 Q 672.631 358.070 672.787 357.099 Q 672.944 356.128 673.344 353.819 Q 673.745 351.509 673.993 350.063 Q 674.242 348.616 674.424 347.439 Q 674.606 346.261 674.879 344.788 Q 675.152 343.316 675.359 342.242 Q 675.565 341.168 675.665 340.515 Q 675.765 339.862 675.819 339.406 Q 675.873 338.950 675.895 338.841 Q 675.917 338.731 676.045 337.263 Q 676.174 335.794 676.315 334.704 Q 676.457 333.614 676.614 332.827 Q 676.771 332.039 676.873 331.504 Q 676.974 330.969 677.174 329.815 "></path>
    <path id="STROKE_906c8636-5629-471c-b29e-b1f671b38b80" opacity="1.000" fill="none" stroke="#000000" stroke-width="2.887" stroke-opacity="1.000" stroke-linecap="round" stroke-linejoin="round" d="M 649.662 379.186 Q 649.641 379.153 649.425 378.801 Q 649.210 378.449 649.191 378.168 Q 649.172 377.887 649.195 377.474 Q 649.217 377.062 650.252 375.002 Q 650.197 375.256 649.522 377.141 Q 648.847 379.027 648.332 380.671 Q 647.818 382.315 647.529 383.673 Q 647.241 385.031 647.062 386.637 Q 646.884 388.244 646.960 389.218 Q 647.037 390.192 647.133 390.573 Q 647.230 390.954 647.432 391.323 Q 647.635 391.693 647.816 391.909 Q 647.998 392.125 648.260 392.359 Q 648.522 392.593 648.809 392.830 Q 649.097 393.066 650.506 393.836 Q 650.677 394.047 651.462 394.714 Q 652.246 395.382 652.749 395.728 Q 653.253 396.074 653.436 396.158 Q 653.619 396.242 653.901 396.381 Q 654.183 396.520 655.506 396.827 Q 656.828 397.133 659.053 397.128 Q 661.277 397.122 662.270 396.950 Q 663.263 396.778 664.274 396.391 Q 665.286 396.003 665.995 395.284 Q 666.703 394.564 667.640 393.053 "></path>
    <path id="STROKE_64729c92-4091-463b-8f9e-c5d93395f8b9" opacity="1.000" fill="none" stroke="#000000" stroke-width="2.010" stroke-opacity="1.000" stroke-linecap="round" stroke-linejoin="round" d="M 666.483 373.475 L 666.748 373.530 L 666.996 373.676 L 667.341 373.973 Q 667.572 374.203 668.313 374.836 Q 669.054 375.468 669.508 375.865 Q 669.961 376.263 670.602 377.028 Q 671.242 377.793 671.693 378.329 Q 672.144 378.864 673.236 382.600 "></path>
    <path id="STROKE_106f82ea-b70d-408e-a4f1-e61b66663baa" opacity="1.000" fill="none" stroke="#000000" stroke-width="3.004" stroke-opacity="1.000" stroke-linecap="round" stroke-linejoin="round" d="M 695.366 281.426 Q 694.559 280.565 694.252 279.593 Q 693.944 278.622 693.857 277.636 Q 693.769 276.650 694.067 275.629 L 693.956 275.405 Q 693.539 274.201 693.901 271.546 Q 694.262 268.890 694.660 267.029 Q 695.057 265.168 695.146 264.363 Q 695.235 263.558 695.281 262.373 Q 695.242 262.529 695.074 265.031 Q 694.906 267.534 694.076 271.386 Q 693.247 275.238 692.100 278.478 Q 690.954 281.719 689.892 284.020 Q 688.831 286.321 687.684 289.750 Q 687.942 289.908 690.200 285.521 Q 692.458 281.134 694.344 276.555 Q 696.231 271.977 697.128 269.734 Q 698.025 267.491 698.680 265.944 Q 699.336 264.397 700.353 262.696 Q 701.369 260.995 702.093 259.896 Q 702.817 258.798 703.864 256.470 Q 704.911 254.141 705.312 252.874 Q 705.713 251.606 706.138 250.395 Q 706.564 249.184 706.765 248.698 Q 706.966 248.213 707.132 247.742 Q 707.299 247.270 707.416 247.056 Q 707.534 246.843 707.639 246.777 Q 707.890 246.816 707.949 246.817 Q 708.009 246.818 708.421 247.907 Q 708.834 248.996 709.000 249.861 Q 709.165 250.726 709.362 251.751 Q 709.559 252.777 709.603 253.095 Q 709.648 253.412 709.654 253.428 Q 709.660 253.443 709.700 255.447 Q 709.740 257.450 709.618 258.784 Q 709.497 260.118 709.440 260.667 Q 709.383 261.216 709.359 261.767 Q 709.335 262.319 709.347 263.303 "></path>
    <path id="STROKE_647d2c40-b1ff-4059-ae65-594bb5317c29" opacity="1.000" fill="none" stroke="#000000" stroke-width="3.115" stroke-opacity="1.000" stroke-linecap="round" stroke-linejoin="round" d="M 710.775 266.952 Q 711.414 268.286 711.611 268.582 Q 711.809 268.877 711.972 269.059 Q 712.135 269.242 712.324 269.343 Q 712.514 269.444 716.096 269.669 Q 716.205 269.658 716.696 268.283 Q 717.186 266.907 717.234 264.575 Q 717.283 262.243 717.117 260.952 Q 716.951 259.661 716.515 258.808 Q 716.339 261.374 716.240 262.817 Q 716.141 264.261 715.809 265.813 Q 715.476 267.364 713.995 272.281 Q 712.514 277.198 711.872 279.532 Q 711.229 281.867 710.843 283.620 Q 710.458 285.373 709.445 288.745 Q 708.432 292.118 706.859 296.484 Q 706.941 296.538 708.107 294.974 Q 709.273 293.411 710.019 292.122 Q 710.765 290.834 712.091 288.062 Q 713.418 285.290 714.493 282.502 Q 715.569 279.715 716.029 278.426 Q 716.489 277.138 716.858 275.208 Q 717.228 273.277 717.368 269.820 Q 717.508 266.362 717.626 263.913 Q 717.744 261.463 717.850 259.499 Q 717.956 257.536 717.732 255.507 Q 717.508 253.478 716.715 251.205 Q 715.922 248.932 715.278 247.412 Q 714.633 245.891 714.241 244.914 Q 713.850 243.937 713.596 243.490 Q 713.342 243.043 712.891 242.264 "></path>
    <path id="STROKE_1171578f-8df7-481d-9a1f-88c355fafb87" opacity="1.000" fill="none" stroke="#000000" stroke-width="2.099" stroke-opacity="1.000" stroke-linecap="round" stroke-linejoin="round" d="M 757.474 150.895 Q 757.421 150.802 757.343 150.610 Q 757.264 150.417 757.245 150.202 Q 757.226 149.986 757.665 149.545 Q 758.104 149.103 758.515 148.805 Q 758.925 148.507 759.177 148.393 Q 759.430 148.279 759.651 148.260 Q 759.661 148.268 759.945 148.494 Q 760.229 148.719 760.385 148.881 Q 760.540 149.042 760.619 149.129 Q 760.698 149.216 760.805 149.360 Q 760.912 149.503 760.971 149.608 Q 761.030 149.713 761.099 149.921 Q 761.168 150.129 761.182 150.457 Q 761.195 150.785 761.158 151.159 Q 761.121 151.532 761.178 151.991 Q 761.234 152.450 761.286 152.684 Q 761.338 152.919 761.393 153.517 Q 761.447 154.115 761.464 154.399 Q 761.481 154.684 761.500 154.850 Q 761.518 155.016 761.546 155.192 "></path>
    <path id="STROKE_c8d087e3-1909-4b9f-aabb-f0caa6012a7d" opacity="1.000" fill="none" stroke="#000000" stroke-width="1.602" stroke-opacity="1.000" stroke-linecap="round" stroke-linejoin="round" d="M 709.221 160.532 Q 709.175 160.463 709.153 160.385 Q 709.130 160.306 709.125 160.236 Q 709.120 160.166 709.135 160.104 Q 709.150 160.042 709.191 159.970 Q 709.233 159.898 709.836 159.289 Q 710.439 158.680 710.810 158.343 Q 711.181 158.006 711.397 157.800 Q 711.614 157.594 712.140 157.110 Q 712.667 156.626 712.945 156.409 Q 713.223 156.191 713.414 156.088 Q 713.604 155.985 714.071 155.899 Q 714.538 155.813 715.144 155.785 Q 715.750 155.756 716.340 155.660 Q 716.931 155.563 717.222 155.485 Q 717.513 155.407 717.936 155.291 Q 718.359 155.175 719.470 154.927 Q 720.581 154.680 721.257 154.528 Q 721.932 154.376 722.453 154.205 Q 722.973 154.033 723.243 153.924 Q 723.512 153.815 724.025 153.608 Q 724.538 153.401 724.910 153.270 Q 725.283 153.139 725.712 153.016 Q 726.141 152.893 726.260 152.873 Q 726.379 152.853 726.600 152.828 L 726.729 152.832 Q 726.906 152.859 727.159 152.946 Q 727.412 153.033 727.523 153.077 Q 727.633 153.122 727.698 153.151 Q 727.762 153.179 727.815 153.205 Q 727.869 153.230 727.876 153.237 Q 727.882 153.244 727.937 153.280 Q 727.992 153.316 728.043 153.371 Q 728.094 153.427 728.151 153.572 Q 728.208 153.717 728.222 153.856 Q 728.236 153.995 728.233 154.130 Q 728.230 154.265 728.167 154.518 Q 728.104 154.771 727.941 155.062 Q 727.779 155.353 727.608 155.572 Q 727.438 155.791 727.227 156.006 Q 727.016 156.220 726.922 156.297 Q 726.828 156.374 726.732 156.440 Q 726.636 156.507 726.599 156.535 Q 726.562 156.562 725.910 156.898 Q 725.259 157.233 724.721 157.447 Q 724.183 157.660 723.964 157.746 Q 723.744 157.831 723.412 158.008 Q 723.081 158.184 722.797 158.382 Q 722.513 158.580 722.360 158.717 Q 722.207 158.853 722.073 158.998 Q 721.940 159.143 721.695 159.405 Q 721.449 159.667 721.259 159.824 Q 721.069 159.980 720.829 160.142 Q 720.589 160.304 720.368 160.504 Q 720.147 160.703 720.065 160.838 Q 719.983 160.973 719.952 161.063 Q 719.920 161.154 719.899 161.285 Q 719.878 161.416 719.944 161.891 Q 720.011 162.367 720.072 162.621 Q 720.134 162.875 720.193 163.134 Q 720.253 163.393 720.288 163.651 Q 720.324 163.909 720.312 164.370 Q 720.300 164.830 720.252 165.068 Q 720.204 165.307 720.161 165.452 Q 720.117 165.596 720.057 165.736 Q 719.998 165.877 719.906 166.042 Q 719.814 166.208 719.676 166.408 Q 719.538 166.607 719.435 166.734 Q 719.332 166.861 719.236 166.972 Q 719.140 167.084 718.862 167.343 Q 718.583 167.602 718.387 167.740 Q 718.192 167.877 718.009 167.997 "></path>
    <path id="STROKE_06a56092-36b6-4586-81f9-2e588cb8ed07" opacity="1.000" fill="none" stroke="#000000" stroke-width="1.794" stroke-opacity="1.000" stroke-linecap="round" stroke-linejoin="round" d="M 713.434 157.049 L 713.512 156.926 L 713.621 156.767 Q 713.705 156.638 714.073 156.207 Q 714.441 155.776 714.737 155.522 Q 715.033 155.268 715.869 154.862 Q 716.704 154.457 717.151 154.262 Q 717.597 154.067 717.829 153.947 Q 718.062 153.827 718.520 153.577 Q 718.979 153.327 719.917 152.867 Q 720.855 152.406 721.638 152.058 Q 722.421 151.709 722.821 151.544 Q 723.221 151.378 723.456 151.282 Q 723.692 151.186 724.109 151.029 Q 724.526 150.873 724.837 150.755 Q 725.149 150.637 725.729 150.395 Q 726.309 150.154 727.060 149.859 Q 727.810 149.565 728.268 149.444 Q 728.725 149.323 728.911 149.293 Q 729.098 149.263 729.256 149.247 Q 729.414 149.231 729.661 149.215 Q 729.909 149.198 730.166 149.173 Q 730.423 149.148 730.653 149.114 Q 730.882 149.080 731.018 149.061 Q 731.153 149.042 731.632 148.983 Q 732.111 148.923 732.349 148.939 Q 732.586 148.955 732.674 148.965 Q 732.762 148.975 732.914 149.048 Q 733.067 149.121 733.238 149.254 Q 733.409 149.387 733.557 149.539 Q 733.704 149.692 733.844 149.891 Q 733.983 150.091 734.010 150.135 Q 734.038 150.180 734.080 150.270 Q 734.122 150.360 734.137 150.413 Q 734.151 150.466 734.155 150.511 Q 734.158 150.556 734.161 150.632 Q 734.164 150.708 734.002 151.045 Q 733.839 151.382 733.674 151.575 Q 733.509 151.769 733.391 151.871 Q 733.274 151.972 733.151 152.058 Q 733.028 152.145 732.959 152.204 Q 732.890 152.263 732.585 152.578 Q 732.279 152.894 732.016 153.155 Q 731.753 153.415 731.412 153.676 Q 731.071 153.937 730.484 154.373 Q 730.469 154.387 730.415 154.497 Q 730.361 154.606 730.332 154.659 Q 730.303 154.712 730.217 154.807 Q 730.132 154.901 729.881 155.128 Q 729.630 155.355 729.425 155.512 Q 729.221 155.668 728.967 155.868 Q 728.712 156.068 728.572 156.195 Q 728.431 156.323 728.307 156.570 Q 728.183 156.817 728.130 157.041 Q 728.078 157.265 728.012 157.601 Q 727.947 157.936 727.907 158.173 Q 727.866 158.411 727.853 158.585 Q 727.839 158.759 727.836 159.047 Q 727.833 159.334 727.802 159.600 Q 727.771 159.866 727.717 160.040 Q 727.662 160.213 727.509 160.417 Q 727.356 160.621 727.292 160.701 Q 727.229 160.780 726.982 161.029 Q 726.975 161.098 726.913 161.350 Q 726.850 161.601 726.788 161.784 Q 726.727 161.968 726.553 162.238 Q 726.378 162.508 726.355 162.535 Q 726.331 162.563 726.258 162.660 Q 726.185 162.758 725.827 163.133 Q 725.469 163.508 725.254 163.698 Q 725.038 163.887 724.784 164.119 Q 724.531 164.351 724.396 164.473 Q 724.262 164.595 724.077 164.754 Q 723.892 164.913 723.798 164.987 Q 723.704 165.061 723.517 165.191 Q 723.329 165.321 723.214 165.391 Q 723.098 165.462 723.025 165.504 Q 722.952 165.545 722.726 165.691 Q 722.500 165.836 722.410 165.908 Q 722.321 165.981 722.237 166.062 Q 722.153 166.143 722.087 166.221 Q 722.021 166.299 722.011 166.308 Q 722.002 166.317 721.835 166.575 Q 721.669 166.833 721.387 167.162 Q 721.105 167.491 720.881 167.677 Q 720.658 167.863 720.205 168.093 Q 719.753 168.324 719.546 168.390 Q 719.339 168.455 719.176 168.502 "></path>
    <path id="STROKE_37dca20d-68f4-4ca3-8079-e65d0707331e" opacity="1.000" fill="none" stroke="#000000" stroke-width="3.352" stroke-opacity="1.000" stroke-linecap="round" stroke-linejoin="round" d="M 655.851 146.445 L 655.486 146.303 L 655.236 146.185 Q 654.954 146.053 654.520 146.046 Q 654.282 146.178 653.232 147.545 Q 652.183 148.912 651.668 150.003 Q 651.153 151.095 651.057 151.803 Q 650.962 152.512 651.380 154.805 "></path>
    <path id="STROKE_84d0b694-f80a-410b-873d-5325682884a0" opacity="1.000" fill="none" stroke="#000000" stroke-width="2.617" stroke-opacity="1.000" stroke-linecap="round" stroke-linejoin="round" d="M 761.226 154.061 Q 761.194 154.095 761.175 154.127 Q 761.155 154.159 761.133 154.227 Q 761.110 154.294 761.084 154.380 Q 761.058 154.466 761.023 155.117 Q 760.988 155.768 760.987 156.273 Q 760.986 156.778 760.893 157.323 Q 760.801 157.867 760.581 158.427 Q 760.360 158.986 760.207 159.325 Q 760.053 159.663 759.941 160.022 Q 759.829 160.381 759.763 160.765 Q 759.696 161.149 759.630 161.622 Q 759.564 162.095 759.520 162.317 Q 759.475 162.539 759.426 162.733 Q 759.376 162.928 759.338 163.072 Q 759.300 163.216 759.204 163.603 Q 759.108 163.989 759.063 164.187 Q 759.018 164.384 758.994 164.504 Q 758.970 164.623 758.913 164.828 Q 758.855 165.033 758.766 165.277 Q 758.676 165.520 758.659 165.558 Q 758.642 165.595 758.528 165.857 Q 758.414 166.119 758.294 166.368 Q 758.175 166.618 757.988 166.950 Q 757.801 167.282 757.728 167.408 Q 757.655 167.534 757.600 167.615 Q 757.545 167.695 757.257 168.025 Q 756.970 168.354 756.850 168.486 Q 756.731 168.618 756.595 168.767 Q 756.459 168.917 756.263 169.126 Q 756.067 169.334 755.919 169.471 Q 755.772 169.608 755.517 169.812 Q 755.262 170.017 754.911 170.275 Q 754.559 170.532 753.819 171.079 Q 753.078 171.626 752.691 171.905 Q 752.305 172.184 752.046 172.380 Q 751.786 172.576 751.692 172.673 Q 751.597 172.769 751.576 172.790 Q 751.556 172.810 751.352 173.207 "></path>
    <path id="STROKE_459eac09-354c-4840-80c8-2c6426cfa430" opacity="1.000" fill="none" stroke="#000000" stroke-width="1.414" stroke-opacity="1.000" stroke-linecap="round" stroke-linejoin="round" d="M 742.687 166.550 Q 742.660 166.512 742.632 166.466 Q 742.604 166.419 742.550 166.334 Q 742.556 166.274 742.765 165.835 Q 742.974 165.395 743.231 164.806 Q 743.488 164.217 743.589 163.918 Q 743.690 163.618 743.719 163.531 Q 743.748 163.444 743.855 162.995 Q 743.961 162.546 744.018 162.234 Q 744.074 161.921 744.097 161.768 Q 744.120 161.615 744.219 160.866 Q 744.318 160.117 744.373 159.843 Q 744.428 159.569 744.468 159.439 Q 744.508 159.309 744.629 159.112 Q 744.749 158.915 744.824 158.823 Q 744.899 158.730 745.061 158.580 Q 745.222 158.430 745.504 158.252 Q 745.786 158.074 746.005 157.976 Q 746.223 157.878 746.289 157.849 Q 746.355 157.820 746.580 157.731 Q 746.806 157.641 747.262 157.437 Q 747.719 157.233 748.262 156.964 Q 748.805 156.694 749.653 156.304 Q 750.501 155.914 750.903 155.734 Q 751.305 155.554 751.527 155.439 Q 751.749 155.324 752.128 155.104 Q 752.507 154.883 752.758 154.743 Q 753.009 154.603 753.150 154.535 Q 753.292 154.467 753.512 154.388 Q 753.732 154.310 753.867 154.286 Q 754.002 154.263 754.029 154.259 Q 754.055 154.255 754.125 154.272 Q 754.194 154.289 754.242 154.322 Q 754.290 154.354 754.376 154.430 Q 754.461 154.505 754.531 154.611 Q 754.600 154.717 754.646 154.856 Q 754.692 154.996 754.703 155.143 Q 754.714 155.290 754.675 155.441 Q 754.635 155.592 754.555 155.766 Q 754.475 155.940 754.384 156.114 Q 754.292 156.288 754.205 156.443 Q 754.117 156.599 754.044 156.720 Q 753.970 156.841 753.832 157.071 Q 753.693 157.300 753.663 157.349 Q 753.633 157.399 753.578 157.502 Q 753.523 157.606 753.475 157.720 Q 753.427 157.835 753.371 157.955 Q 753.316 158.075 753.304 158.097 Q 753.292 158.119 753.201 158.296 Q 753.110 158.473 753.027 158.598 Q 752.943 158.722 752.758 158.939 Q 752.574 159.157 752.385 159.342 Q 752.196 159.527 752.110 159.602 Q 752.025 159.676 751.900 159.790 Q 751.774 159.904 751.770 159.911 Q 751.765 159.918 751.596 160.072 Q 751.426 160.226 751.320 160.323 Q 751.214 160.420 751.174 160.462 Q 751.133 160.503 751.013 160.674 Q 750.894 160.844 750.873 160.879 Q 750.852 160.913 750.840 160.923 Q 750.828 160.932 750.700 161.217 L 750.639 161.328 "></path>
    <path id="STROKE_d9bc671a-55e7-4b24-be7d-aac1310bec92" opacity="1.000" fill="none" stroke="#000000" stroke-width="1.650" stroke-opacity="1.000" stroke-linecap="round" stroke-linejoin="round" d="M 757.098 151.251 Q 757.104 151.251 757.039 150.995 Q 757.037 150.980 756.903 151.411 Q 756.768 151.842 756.651 152.166 Q 756.534 152.490 756.437 152.680 Q 756.340 152.869 756.300 152.928 Q 756.259 152.987 756.199 153.057 Q 756.139 153.128 756.106 153.174 Q 756.073 153.220 756.029 153.286 Q 755.986 153.351 755.952 153.414 Q 755.917 153.476 755.901 153.497 Q 755.886 153.517 755.789 153.747 Q 755.693 153.976 755.592 154.303 Q 755.492 154.629 755.473 154.688 Q 755.454 154.747 755.416 154.842 Q 755.378 154.937 755.228 155.134 Q 755.078 155.330 755.070 155.336 Q 755.062 155.342 755.021 155.402 Q 754.980 155.462 754.896 155.581 "></path>
    <path id="STROKE_f93c14d8-4057-4a9d-b4fb-e6d6e2119f10" opacity="1.000" fill="none" stroke="#000000" stroke-width="1.319" stroke-opacity="1.000" stroke-linecap="round" stroke-linejoin="round" d="M 750.340 155.296 Q 750.262 155.195 750.243 155.167 Q 750.224 155.139 750.500 154.512 Q 750.776 153.885 751.068 153.358 Q 751.361 152.831 751.503 152.594 Q 751.644 152.356 751.956 151.943 Q 752.002 151.932 752.245 151.840 Q 752.489 151.747 752.742 151.748 Q 752.996 151.749 753.066 151.792 Q 753.136 151.834 753.228 151.945 Q 753.320 152.055 753.334 152.079 Q 753.347 152.102 753.513 152.491 Q 753.680 152.881 753.720 153.251 Q 753.761 153.621 753.770 153.863 "></path>
    <path id="STROKE_df3803ec-edcd-4463-ae08-2054a08ff18b" opacity="1.000" fill="none" stroke="#000000" stroke-width="2.121" stroke-opacity="1.000" stroke-linecap="round" stroke-linejoin="round" d="M 728.646 157.658 Q 728.756 157.342 728.796 157.263 Q 728.835 157.184 728.903 157.115 Q 728.971 157.045 729.068 156.973 Q 729.166 156.901 729.990 156.621 Q 730.815 156.342 731.292 156.240 Q 731.768 156.137 731.988 156.156 Q 732.208 156.175 732.339 156.226 Q 732.561 156.506 732.573 156.517 Q 732.585 156.527 732.683 156.714 Q 732.782 156.901 732.856 157.057 Q 732.930 157.213 732.967 157.303 Q 733.003 157.393 733.018 157.437 Q 733.032 157.482 733.072 157.574 Q 733.112 157.666 733.103 157.749 Q 733.094 157.832 733.068 157.937 Q 733.042 158.043 732.996 158.205 Q 732.951 158.368 732.800 158.641 Q 732.649 158.913 732.543 159.036 Q 732.438 159.159 732.346 159.242 Q 732.254 159.325 732.177 159.382 Q 732.101 159.439 731.467 159.756 Q 730.834 160.074 730.355 160.294 Q 729.875 160.515 729.429 160.727 Q 728.982 160.939 728.645 161.150 Q 728.307 161.362 728.126 161.511 Q 727.945 161.660 727.854 161.782 Q 727.763 161.905 727.736 161.970 Q 727.709 162.036 727.632 162.304 "></path>
    <path id="STROKE_b2fe3b0c-5402-42bc-9b55-a0dde793e615" opacity="1.000" fill="none" stroke="#000000" stroke-width="1.559" stroke-opacity="1.000" stroke-linecap="round" stroke-linejoin="round" d="M 723.630 164.916 Q 723.598 164.908 723.373 164.953 Q 723.397 164.970 724.087 164.828 Q 724.778 164.686 725.747 164.560 Q 726.716 164.434 727.174 164.391 Q 727.632 164.349 727.810 164.329 Q 727.987 164.308 728.516 164.276 Q 729.045 164.243 729.938 164.064 Q 730.077 164.001 730.245 163.908 Q 730.413 163.816 730.488 163.745 Q 730.564 163.674 730.631 163.553 Q 730.698 163.431 730.724 163.378 Q 730.750 163.324 730.776 163.239 Q 730.801 163.153 730.829 162.976 Q 730.857 162.799 730.857 162.768 Q 730.857 162.737 730.852 162.480 Q 730.847 162.224 730.833 162.091 L 730.813 162.023 Q 730.803 161.998 730.720 161.701 L 730.731 161.543 "></path>
    <path id="STROKE_f0b288ba-a806-4723-9f43-f71b8d36db58" opacity="1.000" fill="none" stroke="#000000" stroke-width="2.068" stroke-opacity="1.000" stroke-linecap="round" stroke-linejoin="round" d="M 752.214 175.050 Q 752.202 175.060 752.121 175.091 Q 752.056 175.141 751.695 175.900 Q 751.334 176.660 750.837 177.807 Q 750.340 178.953 750.060 179.529 Q 749.780 180.105 749.300 181.050 Q 748.821 181.995 748.609 182.418 Q 748.398 182.841 748.259 183.114 Q 748.120 183.387 747.872 183.859 Q 747.625 184.330 747.075 185.330 Q 746.526 186.331 746.265 186.832 Q 746.003 187.333 745.854 187.653 Q 745.705 187.972 745.641 188.113 Q 745.577 188.254 745.461 188.500 Q 745.344 188.746 745.254 188.939 Q 745.164 189.133 744.685 189.914 Q 744.207 190.695 743.443 191.759 Q 742.679 192.824 741.252 194.912 Q 739.826 197.000 739.303 197.749 Q 738.780 198.498 738.250 199.407 Q 737.720 200.315 737.491 200.728 Q 737.262 201.142 736.256 202.458 Q 735.250 203.773 734.561 204.572 Q 733.872 205.370 733.533 205.799 Q 733.193 206.228 732.771 206.760 Q 732.349 207.293 731.748 207.988 Q 731.147 208.683 730.522 209.310 Q 729.898 209.936 729.422 210.316 Q 728.945 210.697 728.401 211.038 Q 727.857 211.378 727.345 211.685 Q 726.834 211.991 726.581 212.144 Q 726.328 212.298 725.984 212.530 Q 725.641 212.763 725.305 212.988 Q 724.970 213.214 724.717 213.319 Q 724.463 213.423 723.771 213.544 "></path>
    <path id="STROKE_26e87e24-15c6-45ab-8c55-3f9663e46ec4" opacity="1.000" fill="none" stroke="#000000" stroke-width="1.722" stroke-opacity="1.000" stroke-linecap="round" stroke-linejoin="round" d="M 741.426 168.088 Q 741.405 168.062 741.237 167.819 Q 741.070 167.575 741.040 167.445 Q 741.010 167.315 741.022 167.207 Q 741.033 167.098 741.230 166.953 Q 741.428 166.809 741.897 166.727 Q 742.367 166.646 742.834 166.657 Q 743.301 166.669 744.218 166.887 Q 745.135 167.105 746.106 167.537 Q 747.078 167.968 747.629 168.359 Q 748.180 168.750 748.480 169.057 Q 748.780 169.365 749.193 170.084 Q 749.607 170.803 749.834 171.717 Q 750.061 172.631 750.170 173.336 Q 750.279 174.041 750.363 174.423 L 750.344 174.375 Q 750.240 174.193 750.192 174.088 Q 750.145 173.983 749.943 173.614 Q 749.741 173.244 749.622 173.049 Q 749.502 172.854 749.448 172.783 Q 749.393 172.712 749.234 172.434 L 749.117 172.344 "></path>
    <path id="STROKE_aa6aa66d-03b4-4a17-ba6b-0268c4bd9058" opacity="1.000" fill="none" stroke="#000000" stroke-width="2.179" stroke-opacity="1.000" stroke-linecap="round" stroke-linejoin="round" d="M 743.276 166.077 Q 743.120 166.073 742.936 166.031 Q 742.752 165.988 742.647 165.972 Q 742.542 165.955 742.448 165.956 Q 742.354 165.958 742.247 165.974 Q 742.139 165.990 741.906 166.066 Q 741.672 166.142 740.982 166.496 Q 740.291 166.850 739.772 167.192 Q 739.253 167.533 738.489 168.168 Q 737.725 168.803 737.323 169.231 Q 736.920 169.658 736.720 169.913 Q 736.519 170.167 736.424 170.290 Q 736.330 170.412 736.141 170.708 Q 735.952 171.004 735.880 171.134 Q 735.809 171.264 735.734 171.445 Q 735.660 171.626 735.609 171.793 Q 735.557 171.961 735.492 172.143 Q 735.427 172.325 735.375 172.439 Q 735.324 172.553 735.194 172.810 Q 735.065 173.068 734.940 173.279 Q 734.816 173.490 734.406 174.102 Q 733.996 174.714 733.792 175.067 Q 733.587 175.420 733.388 175.912 Q 733.188 176.405 733.014 176.733 Q 732.840 177.062 732.541 177.511 Q 732.243 177.960 731.953 178.338 Q 731.664 178.715 731.507 178.913 Q 731.351 179.111 730.648 179.960 Q 729.946 180.809 729.497 181.365 Q 729.048 181.921 728.658 182.434 Q 728.268 182.948 728.025 183.257 Q 727.783 183.565 727.100 184.422 Q 726.417 185.279 726.007 185.711 Q 725.596 186.144 725.273 186.388 Q 724.951 186.632 724.307 186.903 "></path>
    <path id="STROKE_9194489b-d1ed-4b6a-b80b-cbe35bb17eb0" opacity="1.000" fill="none" stroke="#000000" stroke-width="2.160" stroke-opacity="1.000" stroke-linecap="round" stroke-linejoin="round" d="M 687.331 160.681 Q 687.318 160.644 687.263 160.538 Q 687.207 160.433 687.204 160.250 Q 687.244 160.200 687.664 160.349 Q 688.085 160.499 688.675 160.690 Q 689.266 160.881 689.944 161.088 Q 690.622 161.295 691.275 161.546 Q 691.928 161.796 692.638 162.105 Q 693.347 162.413 694.106 162.847 Q 694.865 163.282 695.267 163.578 Q 695.669 163.875 696.125 164.223 Q 696.581 164.571 696.924 164.824 Q 697.266 165.078 697.455 165.199 Q 697.644 165.321 698.236 165.763 Q 698.828 166.205 699.099 166.436 Q 699.370 166.667 699.455 166.746 Q 699.540 166.825 699.803 167.063 Q 700.067 167.301 700.466 167.644 Q 700.865 167.987 701.071 168.173 Q 701.278 168.359 701.621 168.656 Q 701.964 168.953 702.167 169.119 Q 702.369 169.286 702.660 169.509 Q 702.950 169.733 703.189 169.925 Q 703.427 170.117 703.751 170.396 Q 704.076 170.674 704.264 170.841 Q 704.452 171.008 704.955 171.433 Q 705.457 171.857 705.727 172.114 Q 705.998 172.370 706.314 172.661 Q 706.630 172.951 706.778 173.079 Q 706.925 173.208 706.973 173.245 Q 707.021 173.281 707.259 173.500 Q 707.497 173.718 707.843 174.058 Q 708.189 174.398 708.289 174.485 Q 708.389 174.573 708.770 174.917 Q 709.151 175.261 709.479 175.605 Q 709.807 175.949 709.967 176.111 Q 710.127 176.273 710.211 176.362 Q 710.294 176.450 710.698 176.804 Q 711.102 177.157 711.518 177.497 Q 711.934 177.836 712.244 178.102 Q 712.553 178.368 712.893 178.652 Q 713.232 178.935 713.585 179.215 Q 713.938 179.494 714.142 179.656 Q 714.346 179.818 714.633 180.046 Q 714.919 180.273 715.100 180.411 Q 715.280 180.548 715.366 180.611 Q 715.452 180.673 715.761 180.908 Q 716.071 181.144 716.388 181.367 Q 716.705 181.591 716.857 181.690 Q 717.008 181.789 717.381 182.002 Q 717.754 182.216 718.440 182.630 Q 719.125 183.045 719.768 183.452 Q 720.411 183.859 720.700 184.041 Q 720.990 184.222 721.496 184.539 Q 722.003 184.856 722.289 185.050 Q 722.575 185.244 722.679 185.320 Q 722.782 185.396 723.367 185.865 Q 723.951 186.333 724.284 186.600 Q 724.618 186.867 725.530 187.772 Q 726.443 188.678 726.957 189.231 Q 727.472 189.784 727.676 190.001 Q 727.880 190.218 728.000 190.360 Q 728.121 190.501 728.139 190.526 Q 728.156 190.551 728.238 190.645 Q 728.320 190.739 728.627 191.231 Q 728.933 191.723 729.117 192.089 Q 729.301 192.455 729.559 193.071 Q 729.816 193.687 730.014 194.257 Q 730.212 194.827 730.355 195.293 Q 730.498 195.759 730.640 196.236 Q 730.781 196.712 730.878 197.346 Q 730.974 197.980 730.954 198.397 Q 730.934 198.814 730.749 199.461 Q 730.564 200.107 730.433 200.448 "></path>
  </g>
</svg>